<svg class="img-fluid" id="outputsvg" xmlns="http://www.w3.org/2000/svg" style="transform: none; transform-origin: 50% 50%; cursor: move;" width="800" height="800" viewBox="0 0 8000 8000"><g id="l2cYPzxI1RQuWIl4SFm9FOc" fill="rgb(0,0,0)" style="transform: none;"><g style="transform: none;"><path id="p13N25MGcz" d="M210 6960 l0 -830 830 0 830 0 0 830 0 830 -830 0 -830 0 0 -830z m1360 15 l0 -545 -545 0 -545 0 0 545 0 545 545 0 545 0 0 -545z"></path><path id="pMd3eWv65" d="M669 7333 c0 -2 0 -164 -1 -360 l0 -358 361 -3 361 -2 0 362 0 363 -360 0 c-198 0 -360 -1 -361 -2z"></path><path id="ptpe8nM8f" d="M2478 7683 l-3 -108 -105 0 -105 0 4 -110 c4 -141 7 -139 -135 -134 l-106 4 -1 -363 -2 -362 348 0 347 0 0 -90 0 -90 -120 0 -120 0 0 -120 0 -120 -227 -2 -228 -3 -1 -132 -1 -132 121 -3 121 -3 3 -72 c5 -114 2 -116 -131 -112 l-112 4 3 -65 c1 -36 0 -84 -4 -107 l-5 -43 -195 0 -194 0 0 80 0 80 120 0 121 0 -3 147 -3 148 -145 0 -145 0 -5 -120 -5 -120 -304 -3 c-232 -2 -307 1 -319 10 -12 11 -14 31 -9 120 4 59 3 109 -1 112 -4 2 -66 2 -137 -1 l-131 -6 1 -143 0 -144 108 0 108 0 -3 -77 -3 -78 -105 -3 -106 -3 4 -224 4 -225 -96 0 -96 0 0 453 0 453 -133 -1 -132 0 -3 -723 -2 -722 135 0 135 0 0 120 0 121 93 -3 92 -3 0 -115 0 -115 228 -3 227 -2 0 -105 0 -105 135 0 135 0 0 105 0 105 90 0 90 0 0 -105 0 -105 150 0 150 0 0 135 0 135 -120 0 -120 0 0 90 0 90 120 0 120 0 0 120 0 120 81 0 81 0 -3 -237 -4 -238 348 -3 347 -2 0 -105 0 -105 105 0 105 0 0 -89 0 -89 -39 -7 c-22 -3 -60 -3 -84 0 -84 13 -87 9 -87 -111 l0 -104 -320 0 -320 0 0 108 0 107 -372 -1 -373 -2 -3 -106 -3 -107 -77 3 -77 3 0 105 0 104 -148 1 -147 1 0 -108 0 -109 -77 3 -78 3 -3 107 -3 106 -117 -1 -117 -2 -3 121 -3 121 -132 -1 -132 -1 0 -255 0 -255 215 4 c183 3 218 1 228 -12 9 -10 12 -41 10 -94 l-3 -78 -227 -3 -228 -2 0 -255 0 -255 255 0 255 0 0 120 0 120 200 0 200 0 0 -90 0 -90 -120 0 -120 0 0 -120 0 -119 -107 -3 -108 -3 0 -105 0 -105 -90 0 -90 0 -3 108 -3 107 -134 0 -135 0 0 -135 0 -135 104 0 c120 0 116 4 116 -100 0 -89 -5 -93 -122 -89 l-93 4 -3 -132 -3 -133 74 0 c41 0 102 -3 135 -6 l61 -7 3 109 3 109 225 3 226 2 -1 223 0 222 92 3 93 3 0 -106 0 -105 105 0 105 0 0 -200 0 -200 -333 0 -332 0 0 -148 1 -147 37 1 c20 0 183 1 362 2 l324 2 3 117 3 118 65 3 c113 5 109 10 112 -126 l3 -117 145 0 145 0 3 148 3 147 -121 0 -120 0 0 80 0 80 120 0 120 0 0 120 0 120 225 0 225 0 0 225 0 224 107 3 108 3 0 145 0 145 -108 3 -107 3 0 74 0 74 37 7 c20 4 119 4 218 0 142 -5 184 -4 193 6 6 8 10 55 9 113 -1 55 2 106 6 113 9 13 215 17 326 6 l61 -7 0 -88 0 -89 -120 0 -120 0 2 -252 3 -253 238 -3 237 -2 -2 -198 -3 -197 -87 -3 -87 -3 -3 108 -3 108 -372 3 -373 2 0 -255 0 -255 120 0 120 0 0 -80 0 -80 -347 0 -348 0 2 -492 2 -493 145 -3 146 -3 2 348 3 348 300 0 300 0 3 -228 2 -227 120 0 120 0 0 -90 0 -90 -225 0 -225 0 0 -135 0 -135 225 0 225 0 0 -200 0 -200 -345 0 -345 0 0 -255 0 -256 148 3 147 3 0 105 0 105 227 3 227 2 3 118 3 117 87 3 87 3 3 -123 3 -123 93 4 c124 4 125 3 120 -119 l-3 -95 148 -3 147 -3 0 136 0 135 -120 0 -120 0 0 90 c0 85 1 90 23 95 12 3 101 4 197 3 l175 -3 3 -227 2 -228 255 0 255 0 0 360 0 359 -107 3 -108 3 0 90 0 90 228 3 227 2 0 105 0 105 225 0 225 0 0 120 0 120 89 0 c107 0 105 4 100 -139 l-4 -96 254 0 254 0 0 265 0 265 -119 5 -119 5 0 223 1 222 -108 0 -108 0 0 110 0 109 -117 -2 -118 -2 -3 93 -3 92 121 0 120 0 0 135 0 135 -120 0 -120 0 0 90 0 90 200 0 200 0 0 -225 0 -225 120 0 120 0 0 -347 0 -348 372 2 373 1 3 146 3 146 -121 0 -120 0 0 80 0 80 120 0 120 0 0 144 c0 80 -3 147 -7 149 -5 3 -72 2 -150 -1 l-143 -5 0 -119 0 -119 -87 3 -88 3 -3 227 -2 227 -108 3 -107 3 -3 118 -3 117 -114 0 -115 0 -2 48 c-1 26 -2 79 -3 117 l0 70 -107 3 -108 3 0 199 0 199 108 3 107 3 -3 79 c-2 43 -1 89 2 102 l6 24 315 0 315 0 0 -80 0 -80 -225 0 -225 0 0 -255 0 -255 105 0 105 0 0 -120 0 -120 150 0 150 0 0 120 0 120 120 0 120 0 0 135 0 135 -120 0 -121 0 3 93 3 92 304 3 c220 2 307 -1 318 -9 10 -9 13 -33 11 -93 l-3 -81 -124 -3 -124 -3 7 -52 c3 -29 6 -143 6 -254 l0 -203 145 0 145 0 0 120 0 120 200 0 200 0 0 -90 0 -90 -120 0 -120 0 0 -120 0 -119 -107 -3 -108 -3 0 -105 0 -105 -120 0 -120 0 0 -148 -1 -147 348 0 348 0 0 -80 0 -80 -228 0 -227 0 0 -148 1 -147 37 1 c20 0 183 1 362 2 l325 2 -2 253 -3 252 -87 -3 c-130 -5 -131 -5 -127 131 l4 112 -120 0 -120 0 0 75 0 75 228 3 227 2 0 270 0 270 -110 0 -111 0 3 78 3 77 105 0 105 0 3 373 2 372 -73 0 c-41 0 -102 3 -135 6 l-61 7 -3 -124 -3 -124 -117 2 -118 2 0 -110 0 -110 -77 3 -78 3 -3 106 -3 105 -224 -4 -225 -5 0 322 0 322 78 -3 77 -3 0 -115 0 -115 124 -3 124 -3 -7 -104 -7 -105 141 0 140 0 -7 105 -6 105 231 0 232 0 0 375 0 375 -112 0 -111 0 6 120 7 119 -123 3 -122 3 0 75 0 75 123 3 122 3 -6 93 c-4 51 -4 105 0 120 6 26 6 26 111 26 l105 0 0 135 0 135 -110 0 -110 0 0 90 0 90 110 0 110 0 0 255 0 254 -107 3 -108 3 2 117 2 117 -122 3 -122 3 0 195 0 195 124 3 124 3 -7 61 c-3 33 -6 94 -6 135 l0 73 -372 -2 -372 -3 0 -330 -1 -330 -107 -3 -108 -3 0 -119 0 -120 -210 0 -210 0 0 95 0 95 120 0 120 0 0 105 0 105 120 0 120 0 0 145 0 145 -120 0 -120 0 0 110 0 110 -150 0 -149 0 -3 -107 -3 -108 -63 -3 c-91 -4 -95 1 -90 118 l3 95 -255 0 -255 0 3 -95 c5 -124 4 -125 -123 -117 -52 4 -102 4 -110 1 -12 -5 -14 -23 -8 -110 8 -137 8 -137 -117 -132 l-95 3 0 -135 0 -135 132 0 132 -1 3 106 3 105 117 3 117 3 3 117 3 117 195 0 195 0 0 -90 0 -90 -117 2 -118 2 0 -109 0 -110 -109 0 -109 0 1 -117 2 -118 -347 -3 -348 -2 0 -105 0 -105 -225 0 -225 0 0 -120 0 -120 -320 0 -320 0 0 120 0 120 -105 0 -105 0 2 198 3 197 420 0 420 0 3 -116 3 -116 127 -6 c70 -3 130 -3 134 0 5 2 8 58 8 125 l0 120 118 -3 117 -4 0 135 0 135 -115 0 -115 0 -3 93 -3 92 241 0 240 0 0 135 0 135 -270 0 -270 0 0 -110 0 -111 -77 3 -78 3 0 105 0 105 -147 3 -147 3 -3 -108 -3 -108 -77 -3 -78 -3 0 111 0 110 -255 0 -254 0 -3 -107 -3 -108 -87 -3 -88 -3 0 111 0 110 -375 0 -374 0 -3 -107z m692 -252 c0 -84 -1 -89 -22 -95 -13 -3 -151 -6 -308 -6 -209 0 -289 3 -298 12 -13 13 -17 159 -5 171 3 4 147 7 320 7 l313 0 0 -89z m695 66 c3 -12 5 -54 3 -92 l-3 -70 -90 0 -90 0 -3 93 -3 92 90 0 c86 0 91 -1 96 -23z m-1385 -417 l0 -200 -80 0 -80 0 0 200 0 200 80 0 80 0 0 -200z m930 120 l0 -80 -90 0 -90 0 0 80 0 80 90 0 90 0 0 -80z m-480 -225 l0 -96 -77 3 -78 3 -3 79 c-2 44 -1 85 2 93 4 9 27 13 81 13 l75 0 0 -95z m2988 -2 l3 -93 -89 0 -89 0 -7 31 c-10 52 -7 134 6 147 9 9 39 12 93 10 l80 -3 3 -92z m1346 91 c14 -5 16 -32 16 -200 l0 -194 -80 0 -80 0 0 105 0 105 -120 0 -120 0 0 89 c0 62 4 91 13 94 18 8 352 8 371 1z m-4094 -314 l0 -80 -90 0 -90 0 0 80 0 80 90 0 90 0 0 -80z m2508 -2 l3 -78 -81 0 -80 0 0 74 c0 50 4 76 13 80 6 2 41 4 77 3 l65 -2 3 -77z m-2268 -228 l0 -90 -90 0 -90 0 0 90 0 90 90 0 90 0 0 -90z m2054 74 c3 -9 6 -49 6 -90 l0 -73 -122 -3 -123 -3 0 -145 0 -145 123 -3 122 -3 0 -67 c0 -40 -5 -73 -12 -80 -8 -8 -50 -12 -124 -12 l-112 0 1 -117 2 -118 -197 -3 -198 -2 0 95 0 95 120 0 120 0 0 135 0 135 -120 0 -120 0 0 90 0 90 120 0 120 0 0 120 0 120 194 0 c168 0 195 -2 200 -16z m1144 -301 l-3 -318 -309 -3 c-241 -2 -311 1 -318 10 -9 16 -11 612 -1 621 3 4 147 7 320 7 l313 0 -2 -317z m-3678 -13 l0 -90 -80 0 -80 0 0 90 0 90 80 0 80 0 0 -90z m1600 -30 l0 -120 120 0 120 0 0 -74 c0 -90 1 -90 -139 -85 l-96 4 -3 -117 c-3 -134 -2 -132 -98 -126 l-49 3 -6 120 c-4 66 -7 209 -8 318 l-1 197 80 0 80 0 0 -120z m2750 0 l0 -120 120 0 121 0 -3 -77 -3 -78 -117 2 -117 1 -3 -121 -3 -122 -195 0 -195 0 -3 93 -3 92 121 0 120 0 0 225 0 225 80 0 80 0 0 -120z m-4562 -197 l-3 -78 -90 0 -90 0 -3 78 -3 77 96 0 96 0 -3 -77z m452 -28 l0 -105 120 0 121 0 -3 -92 -3 -93 -295 -3 c-162 -1 -305 0 -318 3 -22 5 -23 9 -20 93 l3 87 108 3 107 3 0 104 0 105 90 0 90 0 0 -105z m455 82 c4 -13 5 -48 3 -78 l-3 -54 -77 -3 -78 -3 0 81 0 80 75 0 c70 0 75 -2 80 -23z m453 -54 l-3 -78 -75 0 -75 0 -3 78 -3 77 81 0 81 0 -3 -77z m1600 -225 l-3 -93 -75 0 -75 0 -3 93 -3 92 81 0 81 0 -3 -92z m-3198 -256 l0 -108 225 4 224 4 3 -123 3 -124 45 2 c25 0 78 -1 118 -4 l72 -5 0 -194 0 -194 -320 0 -320 0 0 90 0 89 122 3 123 3 2 133 2 132 -350 0 -349 0 0 90 c0 88 0 90 26 96 14 4 68 4 120 0 l94 -7 0 110 0 111 80 0 80 0 0 -108z m1144 92 c3 -9 6 -45 6 -80 l0 -64 -80 0 -80 0 0 80 0 80 74 0 c58 0 75 -3 80 -16z m1146 -289 l0 -305 -90 0 -90 0 0 105 0 105 -105 0 -105 0 0 89 c0 104 -4 101 128 101 l82 0 0 105 0 105 90 0 90 0 0 -305z m1840 225 l0 -80 -120 0 -120 0 0 -120 0 -120 -197 2 -198 3 2 118 2 117 -124 0 -125 0 0 73 c0 41 3 77 7 80 3 4 201 7 440 7 l433 0 0 -80z m-5280 -570 l0 -441 -77 3 -78 3 0 342 0 342 -120 3 -120 3 -3 78 c-2 50 1 84 9 93 9 11 50 14 200 14 l189 0 0 -440z m2080 345 l0 -95 -90 0 -90 0 0 88 c0 49 3 92 7 95 3 4 44 7 90 7 l83 0 0 -95z m654 89 c14 -5 16 -32 16 -200 l0 -194 -80 0 -80 0 0 105 0 105 -120 0 -120 0 0 95 0 95 184 0 c101 0 191 -3 200 -6z m1616 -314 l0 -320 -80 0 -80 0 0 313 c0 173 3 317 7 320 3 4 39 7 80 7 l73 0 0 -320z m-3870 0 l0 -80 -90 0 -90 0 0 73 c0 41 3 77 7 80 3 4 44 7 90 7 l83 0 0 -80z m5710 -120 l0 -200 -200 0 -200 0 0 120 0 120 -345 0 -345 0 0 80 0 80 545 0 545 0 0 -200z m-3896 182 c2 -4 2 -92 -1 -195 l-6 -187 -74 0 -73 0 0 195 0 195 74 0 c41 0 77 -4 80 -8z m696 -332 l0 -130 53 0 c124 0 244 -63 310 -162 29 -44 44 -58 63 -58 23 0 24 -2 24 -75 0 -43 -4 -75 -10 -75 -6 0 -10 -139 -10 -398 0 -321 -3 -409 -15 -455 -16 -61 -66 -148 -106 -183 -64 -55 -171 -94 -261 -94 -26 0 -48 -4 -48 -10 0 -6 -37 -10 -90 -10 -53 0 -90 4 -90 10 0 6 -91 10 -254 10 -159 0 -257 -4 -261 -10 -3 -5 -40 -10 -81 -10 -71 0 -74 1 -74 23 0 17 -15 34 -57 63 -34 23 -73 62 -95 94 -55 81 -68 145 -68 342 0 105 -4 168 -10 168 -6 0 -10 73 -10 200 0 127 4 200 10 200 6 0 10 17 10 39 0 94 40 210 94 270 34 38 117 88 176 105 40 12 97 16 227 16 109 0 173 4 173 10 0 6 41 10 104 10 l103 0 6 43 c3 23 3 77 0 120 l-6 77 97 0 96 0 0 -130z m908 43 l-3 -88 -77 -3 -78 -3 0 91 0 90 80 0 81 0 -3 -87z m1142 -3 l0 -90 -90 0 -90 0 0 90 0 90 90 0 90 0 0 -90z m-240 -270 l0 -120 120 0 120 0 0 -80 0 -80 -362 1 c-200 1 -391 3 -425 6 l-63 5 0 74 0 74 228 2 227 3 -3 104 c-2 57 -1 110 2 118 4 9 27 13 81 13 l75 0 0 -120z m-910 -187 c0 -38 3 -85 6 -105 l7 -38 118 0 119 0 0 -200 0 -200 -320 0 -320 0 0 80 0 80 120 0 120 0 0 225 0 225 75 0 75 0 0 -67z m-4102 -691 l3 -93 -93 3 -93 3 -3 78 c-4 105 0 109 102 105 l81 -3 3 -93z m901 84 c8 -9 11 -70 9 -197 l-3 -184 -77 -3 -78 -3 0 106 0 105 -240 0 -240 0 0 95 0 95 309 0 c250 0 311 -3 320 -14z m-689 -306 l0 -80 -80 0 -80 0 0 68 c0 40 5 73 12 80 7 7 40 12 80 12 l68 0 0 -80z m3868 74 c22 -6 22 -8 22 -200 l0 -194 -75 0 -75 0 0 194 c0 146 3 196 13 199 17 8 88 8 115 1z m-3388 -304 l0 -90 -210 0 -210 0 0 90 0 90 210 0 210 0 0 -90z m218 -237 l-3 -88 -77 -3 -78 -3 0 91 0 90 80 0 81 0 -3 -87z m2052 -138 l0 -225 225 0 225 0 0 -320 0 -320 -82 0 -81 0 6 120 7 120 -230 0 -230 0 -2 228 -3 227 -85 0 c-47 0 -100 2 -117 3 l-33 2 0 75 0 75 120 0 120 0 0 120 0 120 80 0 80 0 0 -225z m450 135 l0 -90 -75 0 -75 0 0 90 0 90 75 0 75 0 0 -90z m-2722 -227 l-3 -78 -85 0 -85 0 -3 78 -3 77 91 0 91 0 -3 -77z m3202 -253 l0 -330 219 0 c175 0 221 -3 230 -14 8 -9 11 -43 9 -93 l-3 -78 -317 -3 -318 -2 0 425 0 425 90 0 90 0 0 -330z m-1840 0 l0 -120 225 0 225 0 0 -52 c1 -29 2 -119 3 -201 l2 -147 -77 0 -78 0 0 120 0 120 -240 0 -240 0 0 200 0 200 90 0 90 0 0 -120z m1150 -800 l0 -230 135 0 135 0 0 120 0 120 90 0 90 0 0 -210 0 -210 -452 -2 -453 -3 -1 -132 -1 -133 109 0 109 0 -3 -92 -3 -93 -225 0 -225 0 0 -105 0 -105 -77 -3 -78 -3 0 201 0 200 105 0 105 0 0 449 c0 350 3 450 13 454 6 3 150 6 320 6 l307 1 0 -230z m-910 -80 l0 -90 -90 0 -90 0 0 90 0 90 90 0 90 0 0 -90z m1818 3 l-3 -88 -77 -3 -78 -3 0 91 0 90 80 0 81 0 -3 -87z m452 -3 l0 -90 -80 0 -80 0 0 90 0 90 80 0 80 0 0 -90z"></path><path id="pFVjYD2qR" d="M6130 6280 l0 -150 150 0 150 0 0 150 0 150 -150 0 -150 0 0 -150z"></path><path id="p1GiVbjjVT" d="M3583 4610 c-55 -11 -127 -61 -158 -109 -42 -62 -46 -124 -43 -539 3 -381 3 -388 26 -434 13 -26 40 -61 59 -79 75 -65 65 -64 533 -64 l425 0 50 26 c65 34 121 107 135 176 7 33 10 191 8 445 -3 432 -3 427 -67 501 -18 19 -53 46 -79 59 -47 23 -51 23 -447 25 -220 1 -419 -2 -442 -7z m542 -355 c155 -110 245 -226 245 -315 0 -82 -93 -201 -195 -249 -103 -48 -221 -52 -327 -11 -112 44 -218 171 -218 263 0 56 44 140 98 188 59 52 103 74 189 97 l68 17 3 48 3 47 27 -14 c15 -8 63 -40 107 -71z"></path><path id="p14mRDBS6t" d="M3712 3953 l3 -118 40 0 40 0 5 70 c5 67 6 70 32 73 27 3 27 3 30 -70 l3 -73 75 -3 c65 -3 77 0 91 17 17 20 17 20 22 1 5 -18 14 -20 114 -20 59 0 113 4 119 8 7 4 11 46 10 117 l-1 110 -120 3 c-113 3 -121 1 -137 -19 l-18 -21 0 21 c0 20 -4 21 -155 21 l-156 0 3 -117z"></path><path id="p30DlODaN" d="M3868 1863 c-2 -4 -4 -71 -4 -148 l1 -140 135 0 135 0 0 145 0 145 -132 3 c-72 1 -133 -1 -135 -5z"></path><path id="pLFT2kC2t" d="M3864 6748 l1 -133 135 0 135 0 0 133 1 132 -136 0 -137 0 1 -132z"></path><path id="pMMrJGqb9" d="M2269 4375 c-1 0 -2 -66 -3 -147 l-2 -148 136 0 136 0 -1 147 -1 148 -132 0 c-73 1 -132 1 -133 0z"></path><path id="peru7X1u" d="M210 1040 l0 -830 830 0 830 0 0 830 0 830 -830 0 -830 0 0 -830z m1360 -15 l0 -545 -545 0 -545 0 0 545 0 545 545 0 545 0 0 -545z"></path><path id="p8nSu0COY" d="M668 1383 c-2 -5 -2 -168 0 -363 l4 -355 356 1 357 2 3 361 2 361 -359 0 c-198 0 -361 -3 -363 -7z"></path><path id="piu9SPZFZ" d="M2480 1720 l0 -151 147 3 148 3 0 145 0 145 -148 3 -147 3 0 -151z"></path><path id="pRnKtixSh" d="M6130 1040 l0 -830 830 0 830 0 0 830 0 830 -830 0 -830 0 0 -830z m1390 -15 l0 -545 -545 0 -545 0 0 545 0 545 545 0 545 0 0 -545z"></path><path id="p112namttH" d="M6612 1029 l3 -361 358 0 359 0 1 361 2 361 -363 0 -362 0 2 -361z"></path><path id="peXGIWomW" d="M2265 1171 c-3 -2 -2 -50 2 -107 8 -139 10 -137 -130 -133 l-109 4 -1 -363 -2 -362 148 0 147 0 0 335 0 335 108 0 108 0 -1 147 -1 148 -132 0 c-73 1 -135 -1 -137 -4z"></path><path id="p2oQzOz5C" d="M5468 1170 c-1 -3 -2 -57 -2 -120 l-1 -115 -225 0 -225 0 -3 -228 -2 -227 -120 0 -120 0 0 -135 0 -135 255 0 254 0 3 108 3 107 78 3 c108 4 110 1 105 -118 l-3 -95 253 0 254 0 0 479 0 479 -251 1 c-138 1 -252 -1 -253 -4z m210 -597 l3 -93 -81 0 -80 0 0 88 c0 49 3 92 7 96 4 4 39 5 78 4 l70 -3 3 -92z"></path></g></g><g id="lLZB5lQKY7WDNhEuCabTkQ" fill="rgb(255,255,255)" style="transform: none;"><g style="transform: none;"><path id="py1ii9gnZ" d="M0 4000 l0 -4000 4000 0 4000 0 0 4000 0 4000 -4000 0 -4000 0 0 -4000z m1840 2960 l0 -800 -800 0 -800 0 0 800 0 800 800 0 800 0 0 -800z m1360 695 l0 -105 -347 -2 -348 -3 -3 -109 c-2 -72 1 -113 9 -122 10 -12 68 -14 338 -14 179 0 332 0 339 0 9 0 12 -28 12 -105 l0 -105 120 0 120 0 0 110 0 110 -120 0 -120 0 0 115 0 114 118 3 117 3 3 108 3 107 224 0 225 0 0 -105 0 -105 -120 0 -121 0 3 -122 3 -123 120 0 120 0 0 115 0 115 105 5 105 5 3 108 3 108 115 -3 116 -3 2 -105 1 -105 107 -3 107 -3 3 -117 3 -117 115 -2 115 -1 0 -102 0 -102 -117 1 -118 2 0 -119 c0 -65 -2 -121 -4 -123 -2 -2 -50 -3 -105 -1 l-100 3 -3 117 -3 117 -450 0 -450 0 -3 -227 -2 -228 105 0 105 0 0 -120 0 -120 345 0 345 0 3 -242 c1 -134 2 -286 2 -338 0 -52 4 -101 8 -108 7 -10 35 -13 105 -11 l97 2 3 -101 3 -100 -100 -4 c-55 -1 -103 -6 -106 -10 -8 -8 -15 -206 -7 -225 3 -9 34 -13 108 -13 l104 0 0 -105 0 -105 120 0 120 0 0 330 0 330 228 2 227 3 0 118 0 117 111 0 c72 0 114 4 122 12 8 8 12 47 12 110 l0 97 -121 3 -120 3 -1 115 -1 115 122 3 122 3 -2 117 -1 117 106 3 107 3 -3 107 -3 107 -85 3 c-136 5 -130 10 -130 -113 l0 -105 -225 0 -225 0 0 -120 0 -120 -120 0 -120 0 0 -120 0 -120 120 0 120 0 0 -105 0 -105 -120 0 -120 0 0 -120 0 -120 -120 0 -121 0 3 116 3 117 100 -2 c55 -1 108 1 118 5 15 5 17 21 17 110 l0 104 -120 0 -120 0 0 120 0 120 -105 0 -105 0 0 120 0 120 225 0 225 0 0 105 0 105 348 2 347 3 0 118 0 117 108 0 107 0 0 108 0 107 117 0 118 0 0 120 0 120 -225 0 -225 0 -3 -117 -3 -117 -117 -3 -117 -3 -3 -105 -3 -105 -102 2 -102 1 0 103 0 102 96 -2 c74 -2 98 1 108 13 9 10 11 47 9 120 -2 66 1 106 7 107 6 0 55 0 111 -1 78 -1 103 2 113 14 8 10 12 46 10 108 l-2 93 223 0 223 0 -2 -96 c-2 -73 1 -98 12 -108 10 -8 46 -11 108 -9 l94 3 3 108 3 107 119 0 120 0 0 -110 0 -110 120 0 120 0 0 -115 0 -115 -120 0 -120 0 0 -105 0 -105 -120 0 -120 0 0 -125 0 -125 240 0 240 0 0 120 0 119 108 3 107 3 2 330 2 330 341 3 340 2 0 -89 c0 -49 3 -96 6 -105 5 -13 -11 -16 -118 -18 l-123 -3 0 -225 0 -225 120 -3 120 -3 0 -117 0 -117 108 -3 107 -3 0 -224 0 -225 -110 0 -110 0 0 -120 0 -120 -115 0 -115 0 0 120 0 120 -110 0 -110 0 0 -225 0 -225 -120 0 -121 0 3 -122 3 -123 225 0 225 0 5 120 5 120 115 0 115 0 3 108 3 107 104 0 105 0 0 -105 0 -105 -105 0 c-124 0 -118 7 -113 -143 l3 -96 -120 -3 -120 -3 0 -105 0 -105 123 -3 c107 -2 123 -5 118 -18 -3 -9 -6 -60 -6 -115 l0 -99 -570 0 -570 0 0 115 0 115 120 0 120 0 0 110 0 110 -467 -2 -468 -3 -3 -102 -3 -102 -102 -3 -102 -3 -3 -347 -2 -348 110 0 110 0 0 345 0 345 118 0 117 0 0 -117 0 -118 228 -3 227 -2 0 -105 0 -105 345 0 345 0 0 -120 0 -120 230 0 230 0 0 225 0 225 105 0 105 0 0 -345 0 -345 -231 0 -230 0 3 -105 3 -105 -105 0 -105 0 3 105 4 104 -122 3 -122 3 -1 115 -2 115 -107 3 -108 3 0 -351 0 -351 225 3 224 3 3 -105 3 -105 108 -3 107 -3 0 108 0 108 117 0 118 0 3 123 c2 107 5 123 18 118 9 -3 56 -6 105 -6 l89 0 -2 -341 -3 -341 -105 -2 -105 -1 -3 -107 -3 -108 -224 0 -225 0 0 -120 0 -120 -115 0 -114 0 -3 225 -3 224 120 3 120 3 3 111 c2 86 -1 114 -11 123 -11 8 -106 11 -348 9 l-334 -3 -3 -122 -3 -123 121 0 120 0 0 -105 0 -105 -120 0 -120 0 0 -120 0 -120 -120 0 -120 0 0 120 0 120 -105 0 -105 0 0 225 0 225 225 0 225 0 0 110 0 110 -344 0 c-317 0 -344 -1 -350 -17 -4 -10 -6 -56 -5 -103 l2 -85 -101 -3 -102 -3 0 221 c0 169 3 220 13 221 6 0 209 0 450 0 l437 -1 0 110 0 110 -120 0 -120 0 0 120 0 121 -107 -3 -108 -3 -1 -115 -1 -115 -226 -3 -227 -2 0 -105 0 -105 -115 0 -115 0 -2 28 c-1 15 -2 56 -3 92 -1 36 -3 71 -4 78 -1 9 -29 12 -106 12 l-105 0 0 -225 0 -225 -120 0 -120 0 0 -110 0 -110 345 0 345 0 0 -225 0 -224 105 -3 106 -3 3 -105 c1 -58 1 -111 -2 -117 -3 -10 -57 -13 -222 -13 l-218 0 -6 28 c-3 15 -5 114 -4 221 1 183 0 195 -18 202 -23 9 -156 11 -178 3 -14 -5 -16 -35 -16 -230 l0 -224 105 0 105 0 0 -120 0 -120 120 0 120 0 0 -105 0 -105 -120 0 -121 0 3 -122 3 -123 118 0 117 0 0 -107 0 -108 108 0 107 0 0 -222 0 -223 118 -5 118 -5 0 -235 0 -235 -221 0 -221 0 0 115 -1 115 106 3 106 3 0 119 0 120 -110 0 -110 0 0 -120 0 -120 -120 0 -120 0 0 -120 0 -120 -225 0 -225 0 0 -105 0 -105 -227 -2 -228 -3 0 -120 0 -120 108 -3 107 -3 0 -329 0 -330 -225 0 -225 0 -2 228 -3 227 -205 3 c-113 1 -215 0 -227 -3 -22 -5 -23 -9 -23 -125 l0 -120 120 0 120 0 0 -105 0 -106 -116 3 -117 3 2 96 c2 74 -1 98 -13 108 -10 8 -46 12 -108 10 l-93 -2 -3 116 -3 116 108 3 108 3 2 103 1 104 224 1 223 2 3 123 3 122 -108 0 -108 0 2 102 2 103 450 3 451 2 0 240 0 240 -120 0 -120 0 0 -120 0 -120 -105 0 -105 0 0 225 0 225 105 0 105 0 0 350 0 350 -225 0 -225 0 0 225 0 225 120 0 c73 0 120 4 120 10 0 6 22 10 48 10 90 0 197 39 261 94 40 35 90 122 106 183 12 46 15 134 15 455 0 259 4 398 10 398 6 0 10 42 10 105 0 104 0 105 -24 105 -19 0 -34 14 -63 58 -66 99 -186 162 -310 162 l-53 0 0 130 0 130 -120 0 -120 0 0 224 c0 195 -2 225 -16 230 -9 3 -110 6 -225 6 l-209 0 0 89 c0 49 -3 96 -6 105 -5 13 -25 16 -110 16 l-104 0 0 -105 0 -104 -117 -3 -118 -3 -3 -117 -3 -118 -27 -1 c-15 0 -67 0 -117 0 l-90 0 -3 121 -3 121 -224 -3 -225 -3 0 108 0 107 -110 0 -110 0 0 -107 0 -108 -115 0 c-70 0 -115 4 -115 10 -1 6 -1 52 -2 104 l-1 95 111 -3 c136 -3 134 -5 130 141 l-3 103 -120 3 -120 3 2 102 2 102 220 3 220 2 3 -107 3 -108 120 0 120 0 3 108 3 107 104 0 105 0 0 120 0 120 -105 0 -105 0 0 120 0 120 -347 0 -348 0 2 331 3 331 108 -1 c85 -2 111 1 121 13 8 10 12 49 10 121 l-2 107 104 1 104 2 3 108 3 107 344 0 345 0 0 -105z m1840 0 l0 -105 -240 0 -240 0 0 105 0 105 240 0 240 0 0 -105z m-937 -907 l-1 -103 -102 0 -101 0 -2 103 -2 102 105 0 105 0 -2 -102z m-1363 -468 l0 -120 -115 0 -115 0 0 120 0 120 115 0 115 0 0 -120z m-2290 -787 l0 -453 125 0 126 0 -3 225 -3 224 105 3 105 3 3 108 3 107 -108 0 -108 0 0 115 0 115 98 0 c53 0 100 0 103 0 4 0 6 -49 5 -108 -2 -83 1 -111 12 -120 11 -9 103 -12 348 -10 l334 3 5 118 5 119 115 0 115 0 3 -116 3 -116 -121 0 -120 0 0 -110 0 -110 225 0 225 0 0 -120 0 -120 348 0 347 0 -2 -102 -2 -103 -120 -3 -121 -3 0 -119 0 -120 350 0 350 0 0 225 0 225 120 0 120 0 0 -225 0 -226 107 3 107 3 3 217 c2 163 0 219 -10 225 -6 4 -52 9 -102 10 -49 0 -93 2 -97 2 -5 1 -8 53 -8 116 l0 115 105 0 105 0 0 -120 0 -120 120 0 120 0 0 -105 0 -105 104 0 105 0 3 -87 c2 -49 2 -103 0 -120 l-3 -33 -105 0 c-63 0 -104 -4 -104 -10 0 -6 -64 -10 -173 -10 -130 0 -187 -4 -227 -16 -59 -17 -142 -67 -176 -105 -54 -60 -94 -176 -94 -270 0 -22 -4 -39 -10 -39 -6 0 -10 -83 -10 -230 0 -147 4 -230 10 -230 6 0 10 -63 10 -168 0 -197 13 -261 68 -342 22 -32 61 -71 95 -94 42 -29 57 -46 57 -63 0 -23 2 -23 104 -23 59 0 108 4 111 10 4 6 92 10 231 10 148 0 223 -3 219 -10 -3 -6 -52 -10 -111 -10 l-104 0 0 -120 0 -120 -120 0 -120 0 0 -104 0 -104 64 -7 c35 -4 88 -5 117 -4 l54 4 3 -227 2 -228 231 0 c207 0 230 -2 225 -16 -3 -9 -6 -60 -6 -115 l0 -98 -339 -3 -339 -3 -7 112 c-4 62 -4 124 -1 138 4 14 4 66 0 116 l-7 89 -223 0 -224 0 0 115 0 114 118 3 117 3 3 227 2 228 -237 2 -238 3 -3 223 -2 222 120 0 121 0 -3 122 -3 123 -213 3 c-156 3 -216 1 -227 -8 -11 -9 -14 -35 -13 -116 1 -57 -1 -106 -5 -111 -4 -4 -105 -7 -225 -8 l-217 0 -3 -107 -3 -107 106 -3 107 -3 0 -115 0 -115 -106 -3 -106 -3 0 -224 0 -225 -225 0 -225 0 0 -120 0 -120 -120 0 -119 0 -3 -106 -3 -106 -115 -1 -115 -2 -3 -118 -3 -117 -324 0 c-179 0 -328 0 -331 0 -3 0 -6 52 -7 115 l-2 115 333 0 332 0 0 230 0 230 -105 0 -105 0 0 105 0 106 -122 -3 -123 -3 0 -222 0 -223 -225 -2 -225 -3 -3 -108 c-2 -93 -5 -108 -18 -103 -9 3 -56 6 -105 6 l-90 0 3 101 3 102 93 -2 c60 -1 99 2 108 10 10 8 14 37 14 109 0 54 -3 105 -6 114 -5 13 -25 16 -110 16 l-104 0 0 105 0 105 105 0 104 0 3 -107 3 -108 120 0 120 0 1 105 2 105 106 3 106 3 0 119 0 120 120 0 120 0 0 120 0 120 105 0 105 0 0 105 0 105 240 0 240 0 0 -105 0 -106 108 3 107 3 3 214 c2 149 -1 218 -9 227 -9 11 -75 14 -351 14 l-339 0 3 100 3 101 343 2 342 2 0 -107 0 -108 350 0 350 0 0 105 c0 77 3 105 13 106 6 0 37 0 68 -1 31 -1 73 2 93 5 l36 7 0 119 0 119 -105 0 -105 0 0 105 0 105 -346 2 -345 3 1 238 1 237 -111 0 -110 0 0 -120 0 -120 -120 0 -120 0 0 -120 0 -120 120 0 120 0 0 -105 0 -105 -120 0 -120 0 0 105 0 105 -120 0 -120 0 0 -105 0 -105 -105 0 -105 0 0 105 0 105 -226 2 -226 3 -1 115 -2 115 -122 3 -123 3 0 -121 0 -120 -105 0 -105 0 0 688 c0 379 2 691 4 693 2 2 50 4 105 4 l101 0 0 -452z m3992 -931 c26 -13 61 -40 79 -59 64 -73 64 -72 67 -471 2 -233 -1 -382 -8 -415 -14 -69 -70 -142 -135 -176 l-50 -26 -395 0 c-435 0 -428 -1 -503 64 -19 18 -46 53 -59 79 -23 46 -23 54 -26 404 -4 384 2 448 43 509 31 48 103 98 158 109 23 5 209 8 412 7 365 -2 371 -2 417 -25z m-3990 -337 l3 -120 115 0 115 0 5 -105 5 -105 108 -3 107 -3 0 108 0 108 116 -2 116 -2 1 -103 2 -103 108 -3 107 -3 0 -114 0 -115 -98 0 c-63 0 -102 -4 -110 -12 -8 -8 -12 -47 -12 -110 l0 -98 -225 0 -225 0 0 -120 0 -120 -225 0 -225 0 0 225 0 225 228 2 227 3 3 109 c2 72 -1 113 -9 122 -10 12 -52 14 -228 14 l-216 -2 -3 213 c-1 118 -1 218 2 224 2 6 45 10 104 10 l101 0 3 -120z m2051 1 l2 -116 -105 0 -105 0 2 117 c2 65 3 118 3 118 0 0 45 -1 100 -2 l101 -1 2 -116z m5257 -1026 l0 -240 -227 -2 -228 -3 0 -105 0 -105 119 -2 118 -1 -1 -110 c-2 -134 -2 -134 127 -131 l87 2 3 -222 2 -221 -325 0 c-179 0 -328 -1 -331 -2 -3 -2 -6 50 -7 115 l-2 117 228 0 227 0 0 110 0 110 -347 0 -348 0 1 116 2 117 118 1 119 1 1 105 2 105 106 3 106 3 0 119 0 120 120 0 120 0 0 120 0 120 105 0 105 0 0 -240z m-1818 -117 l3 -118 107 -3 108 -3 2 -227 3 -227 118 -3 117 -3 0 -104 0 -105 120 0 121 0 -3 -115 -3 -115 -343 -3 -342 -2 0 348 0 347 -120 0 -120 0 0 225 0 225 115 0 114 0 3 -117z m-2744 -230 l3 -103 -121 0 -120 0 0 -230 0 -230 240 0 240 0 0 -120 0 -120 105 0 105 0 0 -450 0 -450 -105 0 -105 0 0 -225 0 -224 -117 -3 -118 -3 -3 -117 -3 -118 -227 -2 -227 -3 -1 -105 -2 -105 -116 -3 -116 -3 0 226 0 225 345 0 345 0 0 230 0 230 -225 0 -225 0 0 105 0 105 225 0 225 0 0 120 0 120 -120 0 -120 0 -2 228 -3 227 -330 0 -330 0 -3 -348 -2 -348 -115 3 -115 3 -3 463 -2 462 348 0 347 0 0 110 0 110 -120 0 -120 0 0 225 0 225 343 -2 342 -3 3 -102z m3442 -229 l0 -114 -120 0 -120 0 0 115 0 114 113 3 c61 2 115 2 120 0 4 -2 7 -55 7 -118z m-4802 -450 l-3 -116 -115 0 -115 0 -3 116 -3 116 121 0 121 0 -3 -116z m2 -1134 l0 -800 -800 0 -800 0 0 800 0 800 800 0 800 0 0 -800z m902 680 l0 -115 -116 -3 -116 -3 0 121 0 121 116 -3 116 -3 0 -115z m1360 0 l-1 -115 -101 0 -101 0 0 113 c0 61 0 114 1 117 0 3 45 4 101 3 l101 -3 0 -115z m3658 -680 l0 -800 -800 0 -800 0 0 800 0 800 800 0 800 0 0 -800z m-5257 -14 l2 -116 -107 0 -108 0 0 -335 0 -335 -117 0 -118 0 2 331 3 331 106 -1 c71 -2 110 2 120 10 12 10 15 36 14 118 -1 58 -1 108 -1 111 1 3 46 4 101 3 l101 -1 2 -116z m3437 -333 l0 -448 -221 0 -222 0 2 96 c2 73 -1 98 -12 108 -10 8 -50 11 -123 9 l-109 -3 -3 -107 -3 -108 -224 0 -225 0 0 105 0 105 120 0 120 0 2 226 3 225 225 2 225 2 2 115 c1 63 2 117 3 120 0 3 99 4 220 3 l220 -2 0 -448z"></path><path id="piD2AoTVQ" d="M450 6975 l0 -575 575 0 575 0 0 575 0 575 -575 0 -575 0 0 -575z m910 -3 l0 -332 -330 2 -331 3 1 328 c0 180 0 328 0 330 0 1 149 2 330 2 l330 0 0 -333z"></path><path id="pzCJk2IZW" d="M2290 7080 l0 -230 110 0 110 0 0 230 0 230 -110 0 -110 0 0 -230z"></path><path id="p1D4OqcIuQ" d="M2744 7087 c-2 -7 -3 -62 -2 -123 l3 -109 108 -3 107 -3 0 -104 0 -105 120 0 120 0 0 -120 0 -120 120 0 120 0 0 120 0 120 -120 0 -120 0 0 110 0 110 -120 0 -120 0 0 120 0 120 -105 0 c-78 0 -107 -3 -111 -13z"></path><path id="pM9K6nhxc" d="M5711 7086 c-8 -10 -11 -49 -9 -123 l3 -108 123 -3 123 -3 -3 123 -3 123 -111 3 c-88 2 -114 0 -123 -12z"></path><path id="pUcCWOvKK" d="M6863 7093 c-10 -3 -13 -38 -13 -124 l0 -119 120 0 120 0 0 -105 0 -105 110 0 110 0 0 224 c0 195 -2 225 -16 230 -19 7 -413 7 -431 -1z"></path><path id="p3hgI71GZ" d="M5947 6633 c-10 -9 -8 -665 1 -681 7 -9 83 -12 348 -10 l339 3 3 348 2 347 -343 0 c-189 0 -347 -3 -350 -7z m453 -353 l0 -120 -120 0 -120 0 0 120 0 120 120 0 120 0 0 -120z"></path><path id="pW7SpfBAJ" d="M2960 6055 l0 -104 -107 -3 -108 -3 -3 -117 c-3 -115 -2 -118 20 -123 13 -3 169 -4 348 -3 l325 3 3 117 3 117 107 3 107 3 3 85 c5 136 10 130 -113 130 l-105 0 0 -105 0 -105 -120 0 -120 0 0 105 0 105 -120 0 -120 0 0 -105z"></path><path id="pqi0n1gKr" d="M3892 6053 l3 -108 105 0 105 0 3 108 3 107 -111 0 -111 0 3 -107z"></path><path id="pDOhSwd61" d="M5492 5828 l3 -123 105 0 105 0 3 123 3 122 -111 0 -111 0 3 -122z"></path><path id="pCISN1XgG" d="M5040 4920 l0 -121 108 3 107 3 3 118 3 117 -111 0 -110 0 0 -120z"></path><path id="pOiLmXfZx" d="M6160 4920 l0 -120 120 0 120 0 0 120 0 120 -120 0 -120 0 0 -120z"></path><path id="p13MI1UwMk" d="M4350 3080 l0 -120 105 0 105 0 0 120 0 120 -105 0 -105 0 0 -120z"></path><path id="pQIzMnv4b" d="M4800 2505 l0 -455 348 2 347 3 3 109 c2 71 -1 113 -9 122 -9 11 -55 14 -230 14 l-219 0 0 330 0 330 -120 0 -120 0 0 -455z"></path><path id="pK79VDtZ3" d="M5040 1720 l0 -121 108 3 107 3 3 118 3 117 -111 0 -110 0 0 -120z"></path><path id="phyC77A54" d="M911 5486 c-8 -9 -11 -51 -9 -122 l3 -109 120 -3 120 -3 0 -342 0 -342 108 -3 107 -3 0 471 0 470 -219 0 c-175 0 -221 -3 -230 -14z"></path><path id="pa23g3w5V" d="M1607 5253 c-4 -3 -7 -53 -7 -110 l0 -103 120 0 120 0 0 110 0 110 -113 0 c-63 0 -117 -3 -120 -7z"></path><path id="poX3jtC40" d="M1360 3320 l0 -120 240 0 240 0 0 -120 0 -120 -120 0 -121 0 3 -107 3 -108 115 0 115 0 3 107 3 107 107 3 107 3 3 118 3 117 -111 0 -110 0 0 120 0 120 -240 0 -240 0 0 -120z"></path><path id="p119UzM5cN" d="M3958 4328 l-3 -53 -68 -17 c-183 -48 -287 -162 -287 -315 0 -90 31 -155 107 -222 73 -66 144 -93 259 -99 147 -7 243 23 334 104 134 121 135 294 4 434 -81 87 -275 220 -320 220 -21 0 -23 -6 -26 -52z m-108 -302 c0 -10 -13 -16 -37 -18 l-38 -3 -5 -68 c-7 -95 -24 -84 -28 18 l-3 85 56 0 c41 0 55 -4 55 -14z m68 -71 c-2 -48 -7 -85 -13 -85 -6 0 -11 37 -13 85 -2 72 0 85 13 85 13 0 15 -13 13 -85z m72 35 c0 -27 5 -50 10 -50 6 0 26 23 46 50 54 75 65 68 62 -35 -3 -91 -21 -121 -26 -42 -2 26 -7 47 -13 47 -5 0 -25 -23 -45 -50 -20 -28 -42 -49 -48 -47 -7 2 -12 37 -14 90 -2 73 0 87 13 87 11 0 15 -12 15 -50z m273 35 c-1 -5 -19 -12 -40 -15 -49 -7 -52 -33 -4 -40 41 -6 55 -30 18 -30 -36 0 -57 -10 -57 -26 0 -9 11 -14 33 -14 17 0 39 -5 47 -10 24 -16 -7 -31 -60 -28 l-45 3 -3 74 c-4 101 -3 103 60 99 29 -2 52 -7 51 -13z"></path><path id="pnW1pFkNU" d="M911 3886 c-8 -9 -11 -50 -9 -122 l3 -109 123 -3 123 -3 -3 123 -3 123 -111 3 c-87 2 -114 -1 -123 -12z"></path><path id="plbQ2R6dq" d="M3200 1720 l0 -120 120 0 120 0 0 120 0 120 -120 0 -120 0 0 -120z"></path><path id="p1E6YmzllI" d="M450 1025 l0 -575 575 0 575 0 0 575 0 575 -575 0 -575 0 0 -575z m908 5 l-3 -331 -327 -2 -327 -2 -3 328 c-2 181 -1 331 1 333 2 2 152 4 333 4 l328 0 -2 -330z"></path><path id="pdXTtV920" d="M6400 1025 l0 -575 575 0 575 0 0 575 0 575 -575 0 -575 0 0 -575z m903 5 l-3 -331 -327 0 -328 0 -3 331 -2 330 332 0 333 0 -2 -330z"></path><path id="pR3YvFswR" d="M5497 694 c-4 -4 -7 -61 -7 -126 l0 -118 110 0 111 0 -3 123 -3 122 -101 3 c-55 1 -103 0 -107 -4z"></path></g></g></svg>