<?xml version="1.0" standalone="no"?>
<!DOCTYPE svg PUBLIC "-//W3C//DTD SVG 20010904//EN"
 "http://www.w3.org/TR/2001/REC-SVG-20010904/DTD/svg10.dtd">
<svg version="1.0" xmlns="http://www.w3.org/2000/svg"
 width="300.000000pt" height="300.000000pt" viewBox="0 0 300.000000 300.000000"
 preserveAspectRatio="xMidYMid meet">
<metadata>
Created by potrace 1.10, written by Peter Selinger 2001-2011
</metadata>
<g transform="translate(0.000000,300.000000) scale(0.100000,-0.100000)"
fill="#000000" stroke="none">
<path d="M90 2610 l0 -300 300 0 300 0 0 300 0 300 -300 0 -300 0 0 -300z
m510 5 l0 -215 -215 0 -215 0 0 215 0 215 215 0 215 0 0 -215z m50 -234 c0
-19 -35 -39 -47 -27 -7 7 26 46 39 46 4 0 8 -9 8 -19z m-490 -6 c7 -9 11 -18
8 -20 -9 -10 -38 7 -38 21 0 18 14 18 30 -1z"/>
<path d="M260 2615 l0 -125 125 0 125 0 0 125 0 125 -125 0 -125 0 0 -125z
m198 73 c7 -7 12 -40 12 -80 0 -79 -4 -81 -105 -76 l-60 3 -3 60 c-5 101 -3
105 76 105 40 0 73 -5 80 -12z"/>
<path d="M770 2785 l0 -125 45 0 45 0 0 -45 0 -45 40 0 40 0 0 45 0 45 -40 0
-40 0 0 125 0 125 -45 0 -45 0 0 -125z"/>
<path d="M940 2825 l0 -85 130 0 130 0 0 -85 0 -85 -85 0 -85 0 0 -40 0 -40
85 0 85 0 0 -45 0 -45 -45 0 -45 0 0 -85 0 -85 -125 0 -125 0 0 130 0 130 -45
0 -45 0 0 -175 0 -175 130 0 130 0 0 -40 0 -40 -45 0 -45 0 0 -85 0 -85 130 0
130 0 0 40 0 40 45 0 45 0 0 -85 0 -85 -90 0 -90 0 0 -85 0 -85 45 0 45 0 0
-45 0 -45 -85 0 -85 0 0 45 0 45 -85 0 -85 0 0 40 c0 40 0 40 40 40 l40 0 0
45 0 45 -40 0 -40 0 0 85 0 85 -85 0 -85 0 0 45 0 45 -45 0 -45 0 0 40 0 40
45 0 45 0 0 45 0 45 -45 0 -45 0 0 -45 0 -45 -45 0 -45 0 0 45 0 45 -125 0
-125 0 0 -45 0 -45 125 0 125 0 0 -85 0 -85 -40 0 c-40 0 -40 0 -40 -40 l0
-40 -45 0 -45 0 0 85 0 85 -85 0 -85 0 0 40 c0 40 0 40 -40 40 -40 0 -40 0
-40 -40 0 -40 0 -40 40 -40 l40 0 0 -45 0 -45 -40 0 c-40 0 -40 0 -40 -40 0
-40 0 -40 40 -40 40 0 40 0 40 40 l0 40 45 0 45 0 0 -40 c0 -40 0 -40 40 -40
l40 0 0 -45 0 -45 45 0 45 0 0 -45 0 -45 -85 0 -85 0 0 45 0 45 -85 0 -85 0 0
-85 0 -85 85 0 85 0 0 -45 0 -45 -85 0 -85 0 0 -85 0 -85 40 0 40 0 0 45 0 45
45 0 45 0 0 40 c0 40 0 40 40 40 40 0 40 0 40 -40 l0 -40 45 0 45 0 0 40 c0
40 0 40 40 40 40 0 40 0 40 -40 l0 -40 130 0 130 0 0 40 0 40 130 0 130 0 0
-40 c0 -40 0 -40 40 -40 l40 0 0 -45 0 -45 -40 0 c-40 0 -40 0 -40 -40 l0 -40
-130 0 -130 0 0 -90 0 -90 -40 0 -40 0 0 45 0 45 -45 0 -45 0 0 45 0 45 45 0
45 0 0 40 0 40 -45 0 -45 0 0 -40 0 -40 -45 0 -45 0 0 40 c0 40 0 40 -40 40
-40 0 -40 0 -40 -40 l0 -40 -85 0 -85 0 0 -45 0 -45 -45 0 -45 0 0 45 0 45
-40 0 -40 0 0 -260 0 -260 40 0 40 0 0 170 0 170 45 0 45 0 0 -85 0 -85 40 0
c40 0 40 0 40 -40 0 -40 0 -40 -40 -40 l-40 0 0 -45 0 -45 40 0 40 0 0 45 0
45 130 0 130 0 0 -45 0 -45 45 0 45 0 0 45 0 45 -45 0 -45 0 0 40 0 40 85 0
85 0 0 -40 0 -40 45 0 45 0 0 -45 0 -45 -45 0 -45 0 0 -40 0 -40 85 0 85 0 0
-45 0 -45 45 0 45 0 0 -45 0 -45 -130 0 -130 0 0 -125 0 -125 45 0 45 0 0 -45
0 -45 40 0 c40 0 40 0 40 -40 l0 -40 130 0 130 0 0 40 0 40 45 0 45 0 0 -40 0
-40 85 0 85 0 0 40 c0 40 0 40 40 40 40 0 40 0 40 -40 l0 -40 45 0 45 0 0 40
c0 40 0 40 40 40 40 0 40 0 40 -40 l0 -40 90 0 90 0 0 40 0 40 -90 0 -90 0 0
45 0 45 45 0 45 0 0 40 0 40 -45 0 -45 0 0 45 0 45 -40 0 -40 0 0 -45 0 -45
-170 0 -170 0 0 85 0 85 40 0 40 0 0 45 0 45 130 0 130 0 0 -45 0 -45 85 0 85
0 0 -40 0 -40 130 0 130 0 0 -45 0 -45 40 0 c40 0 40 0 40 -40 l0 -40 45 0 45
0 0 -45 0 -45 -85 0 -85 0 0 45 0 45 -45 0 -45 0 0 40 c0 40 0 40 -40 40 -40
0 -40 0 -40 -40 0 -40 0 -40 40 -40 l40 0 0 -45 0 -45 45 0 45 0 0 -40 0 -40
85 0 85 0 0 40 c0 40 0 40 40 40 40 0 40 0 40 -40 l0 -40 45 0 45 0 0 40 0 40
45 0 45 0 0 45 0 45 -45 0 -45 0 0 40 0 40 -45 0 -45 0 0 45 0 45 90 0 90 0 0
-45 0 -45 40 0 40 0 0 -125 0 -125 130 0 130 0 0 40 0 40 -45 0 -45 0 0 85 0
85 45 0 45 0 0 45 0 45 40 0 40 0 0 85 0 85 -40 0 -40 0 0 45 0 45 40 0 c40 0
40 0 40 40 0 40 0 40 -40 40 l-40 0 0 45 0 45 -45 0 -45 0 0 40 0 40 45 0 45
0 0 45 0 45 40 0 40 0 0 130 0 130 -85 0 -85 0 0 40 c0 40 0 40 -40 40 -40 0
-40 0 -40 -40 l0 -40 -45 0 -45 0 0 -45 0 -45 -40 0 -40 0 0 130 0 130 85 0
85 0 0 40 c0 40 0 40 40 40 40 0 40 0 40 -40 l0 -40 45 0 45 0 0 -45 0 -45 40
0 40 0 0 130 0 130 -40 0 c-40 0 -40 0 -40 40 0 40 0 40 40 40 l40 0 0 90 0
90 -85 0 -85 0 0 40 0 40 45 0 45 0 0 45 0 45 40 0 40 0 0 85 0 85 -125 0
-125 0 0 -45 0 -45 85 0 85 0 0 -40 0 -40 -130 0 -130 0 0 -45 0 -45 45 0 45
0 0 -40 c0 -40 0 -40 40 -40 l40 0 0 -45 0 -45 45 0 45 0 0 -45 0 -45 -85 0
-85 0 0 45 0 45 -45 0 -45 0 0 -85 0 -85 45 0 45 0 0 -45 0 -45 -130 0 -130 0
0 45 0 45 45 0 45 0 0 40 0 40 -45 0 -45 0 0 45 0 45 -45 0 -45 0 0 -45 0 -45
-40 0 -40 0 0 -85 0 -85 85 0 85 0 0 -40 0 -40 -130 0 -130 0 0 40 c0 40 0 40
-40 40 l-40 0 0 85 0 85 40 0 40 0 0 45 0 45 45 0 45 0 0 45 0 45 40 0 40 0 0
85 0 85 45 0 45 0 0 -45 0 -45 45 0 45 0 0 45 0 45 -45 0 -45 0 0 40 0 40 45
0 45 0 0 45 0 45 -130 0 -130 0 0 -130 0 -130 -45 0 -45 0 0 -85 0 -85 -85 0
-85 0 0 45 0 45 45 0 45 0 0 40 0 40 -45 0 -45 0 0 45 0 45 45 0 45 0 0 40 c0
40 0 40 40 40 l40 0 0 85 0 85 45 0 45 0 0 90 0 90 -85 0 -85 0 0 -45 0 -45
-45 0 -45 0 0 45 0 45 -85 0 -85 0 0 40 0 40 -85 0 -85 0 0 45 0 45 40 0 40 0
0 125 0 125 -85 0 -85 0 0 -85 0 -85 -85 0 -85 0 0 45 0 45 45 0 45 0 0 40 0
40 -45 0 -45 0 0 -40 c0 -40 0 -40 -40 -40 l-40 0 0 -45 0 -45 -45 0 -45 0 0
45 0 45 -85 0 -85 0 0 40 0 40 -45 0 -45 0 0 -85z m718 33 c14 -14 16 -148 2
-148 -5 0 -25 -13 -43 -30 l-34 -29 -23 24 -22 24 21 27 c15 19 21 41 21 79 0
28 3 55 7 58 11 11 58 8 71 -5z m-646 -45 c24 -22 23 -35 -4 -31 -15 2 -24 11
-26 26 -4 26 5 28 30 5z m358 -113 l0 -40 85 0 85 0 0 -45 0 -45 -40 0 c-40 0
-40 0 -40 -40 l0 -40 170 0 170 0 0 -90 0 -90 -45 0 -45 0 0 45 0 45 -40 0
-40 0 0 -85 0 -85 40 0 40 0 0 -130 0 -130 -85 0 -85 0 0 -85 0 -85 -40 0 -40
0 0 45 0 45 -45 0 -45 0 0 40 0 40 45 0 45 0 0 85 0 85 85 0 85 0 0 45 0 45
-130 0 -130 0 0 -85 0 -85 -85 0 -85 0 0 -45 0 -45 -45 0 -45 0 0 85 0 85 90
0 90 0 0 45 0 45 40 0 40 0 0 170 0 170 -40 0 -40 0 0 85 0 85 40 0 c40 0 40
0 40 -40z m-40 -242 c0 -49 -9 -59 -30 -34 -6 8 -21 16 -33 18 -12 2 -23 12
-25 23 -2 11 -13 30 -25 43 l-20 22 22 24 23 25 44 -37 c41 -34 44 -40 44 -84z
m284 81 c-3 -5 -16 -9 -30 -9 -26 0 -32 18 -12 38 9 9 16 8 30 -4 9 -9 15 -21
12 -25z m270 -98 c7 -10 -32 -47 -40 -38 -3 3 -3 15 1 26 6 21 29 28 39 12z
m300 -14 c6 -9 7 -19 3 -23 -9 -10 -48 26 -41 38 8 12 25 6 38 -15z m-894 -72
l0 -45 -45 0 -45 0 0 45 0 45 45 0 45 0 0 -45z m680 0 l0 -45 -40 0 -40 0 0
45 0 45 40 0 40 0 0 -45z m170 0 l0 -45 -40 0 -40 0 0 45 0 45 40 0 40 0 0
-45z m-266 -76 c-6 -10 -64 -12 -64 -2 0 3 7 15 17 25 15 17 18 17 34 2 10 -9
16 -21 13 -25z m176 -1 c0 -10 -54 -11 -63 -1 -4 3 0 15 10 25 15 17 17 17 35
2 10 -10 18 -21 18 -26z m-865 12 c12 -13 31 -20 57 -20 40 0 48 -10 23 -30
-8 -7 -15 -20 -15 -30 0 -23 -20 -30 -83 -30 -38 0 -56 -5 -74 -22 -22 -21
-23 -21 -43 -3 -25 23 -17 35 25 35 42 0 75 38 75 86 0 39 9 42 35 14z m605
-28 c0 -5 -8 -16 -18 -25 -17 -16 -20 -15 -42 8 l-23 25 41 0 c23 0 42 -4 42
-8z m-948 -49 c24 -22 23 -35 -4 -31 -15 2 -24 11 -26 26 -4 26 5 28 30 5z
m1218 -28 l0 -45 -85 0 -85 0 0 -125 0 -125 -45 0 -45 0 0 170 0 170 130 0
130 0 0 -45z m-606 -4 c7 -10 -32 -47 -40 -38 -3 3 -3 15 1 26 6 21 29 28 39
12z m940 0 c3 -5 -1 -15 -10 -22 -9 -7 -20 -23 -25 -36 -5 -13 -17 -23 -28
-23 -10 0 -24 -7 -31 -15 -21 -25 -30 -17 -30 29 0 70 5 76 65 76 30 0 56 -4
59 -9z m-1806 -144 l22 -23 -25 -24 c-31 -29 -33 -77 -5 -112 23 -30 18 -38
-29 -38 -22 0 -43 -8 -58 -22 l-23 -21 -25 23 -25 24 25 26 c14 14 25 32 25
38 0 7 8 15 18 19 40 14 62 46 62 90 0 49 7 53 38 20z m832 4 c0 -12 -9 -22
-22 -26 -13 -4 -33 -17 -45 -28 -22 -20 -23 -20 -43 -2 -25 23 -17 35 24 35
20 0 40 8 51 20 23 25 35 25 35 1z m-350 -24 c0 -18 7 -43 16 -55 19 -28 6
-35 -57 -30 -33 2 -45 8 -47 21 -7 33 7 67 27 67 10 0 24 7 31 15 20 24 30 18
30 -18z m1664 -6 c3 -4 -3 -16 -14 -26 -19 -17 -21 -17 -40 0 -25 22 -17 35
20 35 16 0 31 -4 34 -9z m-2044 -81 c0 -40 0 -40 40 -40 l40 0 0 -45 0 -45
-40 0 -40 0 0 -45 0 -45 40 0 40 0 0 -85 0 -85 -130 0 -130 0 0 45 0 45 -40 0
-40 0 0 -45 0 -45 -45 0 -45 0 0 45 0 45 45 0 45 0 0 40 c0 40 0 40 40 40 l40
0 0 45 0 45 90 0 90 0 0 45 0 45 -45 0 -45 0 0 40 0 40 45 0 45 0 0 -40z
m1070 3 c0 -53 31 -83 86 -83 25 0 47 6 54 15 7 8 16 15 21 15 5 0 9 -7 9 -15
0 -8 -4 -15 -9 -15 -5 0 -23 -12 -40 -26 -30 -25 -31 -28 -31 -108 0 -70 3
-86 20 -101 28 -25 25 -37 -7 -33 -26 3 -28 7 -33 63 -6 64 -25 108 -59 139
-14 13 -21 31 -21 56 0 23 -8 48 -21 64 -20 26 -20 28 -4 46 26 29 35 25 35
-17z m200 12 c10 -12 10 -18 0 -30 -19 -23 -30 -18 -30 15 0 33 11 38 30 15z
m260 -24 c0 -11 -29 -35 -35 -29 -10 9 7 38 21 38 8 0 14 -4 14 -9z m-510 -76
l0 -45 -40 0 -40 0 0 45 0 45 40 0 40 0 0 -45z m-344 14 c19 -21 19 -21 -6
-18 -14 2 -26 12 -28 22 -5 23 11 22 34 -4z m-523 -131 l-27 -28 -28 27 -28
27 27 28 27 28 28 -27 28 -27 -27 -28z m869 49 c68 -29 75 -52 80 -279 l4
-201 -30 -32 c-38 -41 -66 -55 -105 -55 -30 0 -31 -1 -31 -50 l0 -50 -45 0
-45 0 0 -85 0 -85 -85 0 -85 0 0 -40 c0 -40 0 -40 -40 -40 l-40 0 0 -45 0 -45
40 0 c40 0 40 0 40 -40 0 -40 0 -40 -40 -40 -40 0 -40 0 -40 40 l0 40 -45 0
-45 0 0 -40 0 -40 -45 0 -45 0 0 -45 0 -45 -40 0 -40 0 0 45 0 45 -45 0 -45 0
0 40 0 40 45 0 45 0 0 45 0 45 130 0 130 0 0 40 0 40 -45 0 -45 0 0 45 0 45
-45 0 -45 0 0 -45 0 -45 -85 0 -85 0 0 -40 c0 -40 0 -40 -40 -40 -40 0 -40 0
-40 40 l0 40 -45 0 -45 0 0 45 0 45 130 0 130 0 0 40 0 40 -45 0 -45 0 0 45 0
45 130 0 130 0 0 -85 0 -85 45 0 45 0 0 85 0 85 40 0 40 0 0 -85 0 -85 45 0
45 0 0 40 c0 40 0 40 40 40 l40 0 0 44 0 43 -61 7 c-34 3 -85 6 -113 6 -64 0
-114 25 -141 70 -18 32 -20 50 -18 222 2 201 4 213 57 263 l31 30 190 -1 c148
-1 198 -5 227 -17z m258 -62 l0 -85 -40 0 -40 0 0 85 0 85 40 0 40 0 0 -85z
m-1766 39 c9 -3 16 -14 16 -24 0 -10 7 -23 15 -30 28 -23 15 -31 -42 -28 -62
3 -71 13 -59 64 6 24 35 32 70 18z m986 -6 c-1 -7 -7 -26 -14 -43 -12 -25 -15
-27 -21 -12 -10 24 3 67 20 67 8 0 15 -6 15 -12z m864 3 c7 -10 -32 -47 -40
-38 -3 3 -3 15 1 26 6 21 29 28 39 12z m331 -101 c-10 -11 -23 -30 -29 -43
-15 -29 -79 -32 -84 -4 -6 28 7 67 21 67 8 0 24 11 37 25 l24 26 25 -25 c24
-25 24 -26 6 -46z m255 45 c7 -9 10 -18 7 -21 -10 -11 -37 5 -37 21 0 19 14
19 30 0z m-2320 -39 c0 -22 -19 -30 -35 -16 -22 18 -18 30 10 30 15 0 25 -6
25 -14z m2470 -10 c5 -13 25 -36 44 -51 33 -25 36 -32 36 -76 0 -51 -8 -60
-30 -34 -7 8 -21 15 -32 15 -10 0 -21 8 -25 18 -9 25 -44 62 -60 62 -7 0 -20
17 -30 38 -9 20 -19 40 -21 45 -2 4 22 7 52 7 50 0 57 -3 66 -24z m-1948 -33
c24 -22 23 -35 -4 -31 -15 2 -24 11 -26 26 -4 26 5 28 30 5z m1178 -2 c0 -19
-35 -39 -47 -27 -7 7 26 46 39 46 4 0 8 -9 8 -19z m40 -156 l0 -85 170 0 170
0 0 -40 0 -40 -45 0 -45 0 0 -45 0 -45 45 0 45 0 0 -45 0 -45 130 0 130 0 0
45 0 45 85 0 85 0 0 -85 0 -85 -215 0 -215 0 0 -45 0 -45 45 0 45 0 0 -40 0
-40 -175 0 -175 0 0 -45 0 -45 -40 0 c-40 0 -40 0 -40 -40 l0 -40 -45 0 -45 0
0 -45 0 -45 45 0 45 0 0 -45 0 -45 40 0 c40 0 40 0 40 -40 l0 -40 45 0 45 0 0
-45 0 -45 -45 0 -45 0 0 45 0 45 -40 0 c-40 0 -40 0 -40 40 l0 40 -85 0 -85 0
0 45 0 45 -45 0 -45 0 0 45 0 45 -45 0 -45 0 0 -45 0 -45 -40 0 -40 0 0 130 0
130 40 0 c40 0 40 0 40 40 0 40 0 40 -40 40 l-40 0 0 45 0 45 40 0 c40 0 40 0
40 40 l0 40 45 0 45 0 0 -125 0 -125 85 0 85 0 0 -45 0 -45 45 0 45 0 0 45 0
45 40 0 c40 0 40 0 40 40 0 40 0 40 -40 40 l-40 0 0 130 0 130 40 0 40 0 0
-130 0 -130 45 0 45 0 0 45 0 45 85 0 85 0 0 40 0 40 -45 0 -45 0 0 45 0 45
-40 0 -40 0 0 45 0 45 -85 0 -85 0 0 40 0 40 -45 0 -45 0 0 -40 c0 -40 0 -40
-40 -40 l-40 0 0 85 0 85 -45 0 -45 0 0 40 0 40 130 0 130 0 0 -85z m410 31
c0 -8 -4 -18 -10 -21 -5 -3 -10 -29 -10 -57 l0 -52 -30 29 -29 28 29 34 c17
18 30 38 30 43 0 6 5 10 10 10 6 0 10 -6 10 -14z m-330 -67 c0 -12 -27 -11
-35 1 -11 17 5 32 21 19 8 -6 14 -15 14 -20z m-970 -80 c0 -16 7 -45 14 -64
l15 -35 -85 0 c-84 0 -98 6 -68 31 9 7 20 23 25 36 5 13 15 23 22 23 7 0 24
11 37 25 27 29 40 24 40 -16z m705 -121 c-76 -90 33 -202 117 -121 l28 27 0
-86 c0 -72 3 -90 21 -112 l21 -27 -23 -25 -23 -24 -25 24 c-21 20 -38 26 -86
28 l-60 3 -3 100 c-2 86 -6 103 -24 122 -26 27 -98 32 -118 8 -17 -21 -30 -19
-30 5 0 15 13 26 44 39 25 11 61 40 87 70 l44 50 27 -26 27 -26 -24 -29z m168
0 l-27 -28 -28 27 -28 27 27 28 27 28 28 -27 28 -27 -27 -28z m-1533 -103 l0
-175 -85 0 -85 0 0 45 0 45 45 0 45 0 0 130 0 130 40 0 40 0 0 -175z m1940
132 c0 -31 6 -49 20 -62 26 -24 25 -37 -2 -33 -14 2 -24 11 -26 24 -2 12 -14
32 -28 45 l-24 23 22 23 c31 33 38 29 38 -20z m272 26 c27 -24 22 -33 -19 -33
-40 0 -83 -31 -83 -61 0 -17 -36 -36 -47 -25 -4 3 3 16 14 29 11 12 24 32 28
45 3 12 14 22 24 22 10 0 26 9 36 20 22 24 24 24 47 3z m-2344 -35 c7 -7 12
-42 12 -85 0 -69 -1 -73 -25 -79 -13 -3 -29 -12 -36 -20 -18 -22 -29 -16 -29
15 0 17 -11 42 -25 59 -23 27 -23 31 -8 43 9 8 22 29 30 47 10 25 19 32 41 32
15 0 33 -5 40 -12z m556 3 c3 -4 -3 -16 -14 -26 -24 -22 -27 -81 -5 -111 8
-12 11 -24 8 -28 -3 -3 -39 -6 -78 -6 -52 0 -76 -4 -85 -15 -7 -8 -16 -15 -21
-15 -5 0 -6 7 -3 15 4 8 12 15 19 15 30 0 55 51 55 110 0 31 3 60 7 63 10 10
111 8 117 -2z m1251 -18 c17 -33 38 -54 62 -64 13 -5 23 -17 23 -28 0 -10 7
-24 15 -31 20 -17 10 -30 -24 -30 -15 0 -36 -9 -46 -20 -10 -11 -22 -20 -27
-20 -4 0 -8 38 -8 83 0 71 -3 87 -20 102 -11 10 -17 22 -14 27 9 13 28 4 39
-19z m-1598 -45 l23 -22 -22 -23 c-31 -33 -38 -29 -38 22 0 25 3 45 7 45 4 0
17 -10 30 -22z m1383 -23 l0 -45 -40 0 -40 0 0 45 0 45 40 0 40 0 0 -45z
m-1808 18 c17 -15 17 -17 2 -35 -25 -27 -34 -22 -34 17 0 39 5 42 32 18z
m1293 -14 c7 -11 -22 -49 -37 -49 -10 0 -11 44 -1 53 10 10 31 8 38 -4z m-765
-89 l0 -40 -45 0 -45 0 0 40 0 40 45 0 45 0 0 -40z m930 -9 c0 -11 -29 -35
-35 -29 -10 9 7 38 21 38 8 0 14 -4 14 -9z m-1032 -54 l22 -23 -25 -24 c-14
-13 -25 -29 -25 -36 0 -6 -7 -14 -15 -18 -17 -6 -21 19 -5 29 6 3 10 26 10 51
0 50 7 54 38 21z m142 4 c0 -18 -27 -37 -38 -26 -5 4 26 45 35 45 1 0 3 -9 3
-19z m2004 -30 c3 -5 -1 -15 -10 -22 -9 -7 -20 -23 -25 -36 -8 -20 -15 -23
-68 -23 -40 0 -63 -5 -71 -15 -19 -23 -30 -18 -30 14 0 15 -9 40 -20 53 -10
14 -16 28 -13 32 10 9 231 7 237 -3z m-1123 -107 c-13 -17 -21 -41 -21 -65 0
-44 -9 -48 -35 -19 -28 31 -87 27 -117 -8 l-23 -27 -27 31 -28 31 21 19 c12
11 25 29 30 42 7 19 16 22 68 22 53 0 62 3 83 28 l23 28 23 -28 24 -28 -21
-26z m-431 40 c0 -14 -41 -20 -53 -7 -4 3 0 15 9 25 13 14 20 15 31 7 7 -6 13
-18 13 -25z m-170 -28 c0 -8 -4 -18 -10 -21 -5 -3 -10 -15 -10 -25 0 -12 -9
-22 -25 -26 -13 -3 -29 -12 -36 -20 -15 -18 -29 -18 -29 0 0 8 12 21 27 28 15
7 37 28 48 45 22 35 35 42 35 19z m1730 -71 l0 -45 45 0 45 0 0 -40 0 -40 -45
0 -45 0 0 -45 0 -45 -40 0 -40 0 0 85 0 85 -45 0 -45 0 0 45 0 45 85 0 85 0 0
-45z m-210 0 c0 -39 -5 -42 -32 -18 -17 15 -17 17 -2 35 25 27 34 22 34 -17z
m-306 -4 c3 -4 -3 -16 -14 -26 -18 -16 -20 -31 -20 -145 0 -101 3 -130 15
-140 19 -16 19 -30 0 -30 -9 0 -18 8 -22 18 -9 26 -35 53 -60 63 -13 5 -23 17
-23 27 0 10 -11 29 -25 42 l-25 24 23 25 c13 14 27 34 30 44 4 9 12 17 20 17
18 0 53 39 62 68 6 22 29 30 39 13z m-684 -81 c0 -40 0 -40 -40 -40 -40 0 -40
0 -40 40 0 40 0 40 40 40 40 0 40 0 40 -40z m950 -90 l0 -130 -130 0 -130 0 0
130 0 130 130 0 130 0 0 -130z m70 106 c6 -8 21 -16 33 -18 19 -3 22 -10 25
-63 2 -48 8 -65 28 -86 l24 -26 -21 -19 c-12 -10 -25 -29 -30 -41 -5 -13 -16
-23 -26 -23 -9 0 -27 -10 -40 -22 l-23 -22 -22 21 -21 21 22 28 c19 24 21 39
21 145 0 116 5 134 30 105z m-1229 -96 c25 0 43 8 59 25 l24 25 23 -22 c33
-30 29 -38 -19 -38 -29 0 -49 -7 -65 -22 l-23 -21 -23 21 c-46 43 -147 16
-147 -40 0 -10 -10 -20 -25 -24 -13 -3 -29 -12 -36 -20 -15 -18 -29 -18 -29 1
0 9 10 19 23 24 27 11 52 39 61 69 4 12 15 22 25 22 10 0 28 11 41 25 l24 25
26 -25 c18 -17 37 -25 61 -25z m259 21 c0 -19 -35 -39 -47 -27 -7 7 26 46 39
46 4 0 8 -9 8 -19z m231 -114 c16 -5 49 -59 49 -79 0 -15 -21 -8 -27 10 -14
40 -46 62 -90 62 -49 0 -52 5 -21 37 l22 23 25 -23 c14 -13 33 -27 42 -30z
m1049 -49 c0 -20 -7 -31 -23 -37 -13 -5 -29 -16 -36 -25 -21 -25 -31 -19 -31
18 0 23 -9 45 -24 63 l-25 28 26 27 26 27 43 -37 c33 -27 44 -43 44 -64z
m-1580 47 l0 -45 -45 0 -45 0 0 -40 0 -40 -45 0 -45 0 0 -45 0 -45 -40 0 -40
0 0 45 0 45 40 0 c40 0 40 0 40 40 l0 40 45 0 45 0 0 45 0 45 45 0 45 0 0 -45z
m1450 -130 l0 -85 -85 0 -85 0 0 45 0 45 45 0 45 0 0 40 c0 40 0 40 40 40 l40
0 0 -85z m-1720 37 c0 -5 -8 -16 -18 -25 -14 -13 -21 -14 -30 -5 -21 21 -13
38 18 38 17 0 30 -4 30 -8z m1270 -6 c0 -22 -19 -30 -35 -16 -22 18 -18 30 10
30 15 0 25 -6 25 -14z m-1350 -111 l0 -85 130 0 130 0 0 40 0 40 45 0 45 0 0
-40 0 -40 -45 0 -45 0 0 -45 0 -45 -130 0 -130 0 0 45 0 45 -40 0 -40 0 0 85
0 85 40 0 40 0 0 -85z m310 66 c0 -12 -9 -22 -22 -26 -28 -9 -68 -44 -68 -61
0 -15 -27 -26 -35 -15 -2 5 1 14 9 20 8 7 17 23 20 36 4 15 14 25 25 25 10 0
26 9 36 20 23 25 35 25 35 1z m445 -91 c17 -18 17 -21 2 -38 -8 -9 -20 -29
-26 -45 -6 -15 -17 -27 -24 -27 -7 0 -24 -11 -37 -25 l-24 -25 -25 23 c-14 13
-34 27 -43 30 -10 4 -18 15 -18 26 0 11 -4 23 -10 26 -5 3 -10 13 -10 21 0 11
16 14 73 14 61 0 77 3 92 20 10 11 21 20 25 20 4 0 15 -9 25 -20z m600 0 c10
-11 27 -20 37 -20 10 0 21 -8 25 -17 3 -10 17 -30 30 -44 l23 -25 -28 -27 -28
-27 -24 25 c-13 14 -30 25 -37 25 -7 0 -18 12 -24 27 -6 16 -18 36 -26 45 -15
17 -15 20 2 38 10 11 21 20 25 20 4 0 15 -9 25 -20z m403 -85 c2 -33 7 -64 13
-69 24 -25 9 -37 -43 -34 l-53 3 -3 60 c-5 93 1 107 46 103 l37 -3 3 -60z
m-1238 -20 l0 -45 -45 0 -45 0 0 45 0 45 45 0 45 0 0 -45z m-130 0 c0 -39 -5
-42 -32 -18 -17 15 -17 17 -2 35 25 27 34 22 34 -17z"/>
<path d="M1460 2355 l0 -45 40 0 40 0 0 45 0 45 -40 0 -40 0 0 -45z"/>
<path d="M510 1670 l0 -40 90 0 90 0 0 40 0 40 -90 0 -90 0 0 -40z"/>
<path d="M1309 1691 l-29 -29 0 -162 0 -162 29 -29 29 -29 162 0 162 0 29 29
29 29 0 162 0 162 -29 29 -29 29 -162 0 -162 0 -29 -29z m151 -10 c0 -5 -12
-12 -28 -15 -26 -6 -79 -50 -105 -89 -11 -17 -13 -15 -15 11 -3 43 14 81 40
92 30 12 108 12 108 1z m207 -13 c9 -10 18 -39 20 -70 l5 -53 -20 30 c-27 43
-79 85 -114 92 -15 3 -31 10 -35 16 -10 17 125 3 144 -15z m-100 -39 c67 -25
98 -90 72 -150 -13 -32 -119 -119 -144 -119 -8 0 -11 8 -8 20 4 14 0 20 -11
20 -32 0 -96 40 -111 70 -20 39 -19 69 5 108 33 55 125 79 197 51z m123 -208
c0 -43 -5 -65 -19 -82 -18 -22 -27 -24 -141 -27 -164 -5 -188 0 -206 43 -15
37 -19 101 -6 109 4 2 20 -11 35 -30 16 -19 45 -43 66 -53 20 -11 43 -27 50
-35 19 -22 45 -20 89 8 45 28 112 96 112 113 0 7 5 13 10 13 6 0 10 -26 10
-59z"/>
<path d="M1400 1521 c0 -37 2 -41 25 -41 14 0 25 5 25 10 0 6 -7 10 -15 10 -9
0 -15 9 -15 24 0 14 -4 28 -10 31 -6 4 -10 -10 -10 -34z"/>
<path d="M1530 1536 c0 -18 -1 -18 -18 -3 -27 24 -32 21 -32 -18 0 -19 5 -35
10 -35 6 0 10 9 10 21 0 21 0 21 20 -2 l19 -24 1 33 c0 17 5 32 10 32 6 0 10
-13 10 -30 0 -23 4 -30 20 -30 25 0 26 17 3 23 -17 4 -17 5 0 6 9 0 17 5 17
10 0 5 -8 12 -17 14 -17 4 -17 5 0 6 9 0 17 5 17 11 0 5 -16 9 -35 7 -27 -1
-35 -6 -35 -21z"/>
<path d="M1290 985 l0 -45 40 0 40 0 0 45 0 45 -40 0 -40 0 0 -45z"/>
<path d="M1030 730 c0 -40 0 -40 40 -40 40 0 40 0 40 40 0 40 0 40 -40 40 -40
0 -40 0 -40 -40z"/>
<path d="M1710 815 l0 -45 45 0 45 0 0 -40 0 -40 45 0 45 0 0 40 0 40 -45 0
-45 0 0 45 0 45 -45 0 -45 0 0 -45z"/>
<path d="M2310 645 l0 -45 45 0 45 0 0 45 0 45 -45 0 -45 0 0 -45z"/>
<path d="M1800 2870 l0 -40 45 0 45 0 0 -85 0 -85 85 0 85 0 0 -45 0 -45 85 0
85 0 0 170 0 170 -85 0 -85 0 0 -40 0 -40 -45 0 -45 0 0 40 0 40 -85 0 -85 0
0 -40z m340 -85 l0 -45 -40 0 -40 0 0 45 0 45 40 0 40 0 0 -45z m-180 20 c7
-8 21 -15 31 -15 12 0 25 -14 36 -37 9 -21 19 -42 21 -46 2 -4 -22 -7 -54 -5
l-59 3 -3 58 c-3 57 5 70 28 42z m230 -125 c0 -55 -2 -60 -24 -66 -38 -9 -61
-1 -64 23 -2 12 -10 27 -18 33 -23 20 -16 30 19 30 21 0 41 8 52 20 29 32 35
24 35 -40z"/>
<path d="M2310 2610 l0 -300 300 0 300 0 0 300 0 300 -300 0 -300 0 0 -300z
m520 5 l0 -215 -215 0 -215 0 0 215 0 215 215 0 215 0 0 -215z m-448 -232 c24
-22 23 -35 -4 -31 -15 2 -24 11 -26 26 -4 26 5 28 30 5z"/>
<path d="M2490 2615 l0 -125 125 0 125 0 0 125 0 125 -125 0 -125 0 0 -125z
m198 73 c7 -7 12 -40 12 -80 0 -79 -4 -81 -105 -76 l-60 3 -3 60 c-5 101 -3
105 76 105 40 0 73 -5 80 -12z"/>
<path d="M940 2355 l0 -45 45 0 45 0 0 45 0 45 -45 0 -45 0 0 -45z"/>
<path d="M860 1415 l0 -45 40 0 40 0 0 45 0 45 -40 0 -40 0 0 -45z"/>
<path d="M90 390 l0 -300 300 0 300 0 0 300 0 300 -300 0 -300 0 0 -300z m554
237 c6 -9 7 -19 3 -23 -9 -10 -48 26 -41 38 8 12 25 6 38 -15z m-44 -242 l0
-215 -215 0 -215 0 0 215 0 215 215 0 215 0 0 -215z"/>
<path d="M260 385 l0 -125 125 0 125 0 0 125 0 125 -125 0 -125 0 0 -125z
m198 73 c7 -7 12 -40 12 -80 0 -79 -4 -81 -105 -76 l-60 3 -3 60 c-5 101 -3
105 76 105 40 0 73 -5 80 -12z"/>
<path d="M1460 470 c0 -40 0 -40 40 -40 40 0 40 0 40 40 0 40 0 40 -40 40 -40
0 -40 0 -40 -40z"/>
</g>
</svg>
