<svg class="img-fluid" id="outputsvg" xmlns="http://www.w3.org/2000/svg" style="transform: none; transform-origin: 50% 50%; cursor: move;" width="792" height="790" viewBox="0 0 7920 7900"><g id="l6TCYItugcaQHFZfENYBq7j" fill="rgb(0,0,0)" style="transform: none;"><g style="transform: none;"><path id="puQoRqYVS" d="M80 6825 l0 -955 955 0 955 0 0 955 0 955 -955 0 -955 0 0 -955z m1580 -5 l0 -630 -625 0 -625 0 0 630 0 630 625 0 625 0 0 -630z"></path><path id="p1Ef6HIK5Y" d="M610 6825 l0 -425 425 0 425 0 0 425 0 425 -425 0 -425 0 0 -425z"></path><path id="pM8cesSYU" d="M2190 7615 l0 -165 130 0 130 0 0 -100 0 -100 -130 0 -130 0 0 -160 0 -160 130 0 130 0 0 -106 0 -107 -127 4 -128 4 -3 -162 -2 -163 130 0 130 0 0 -235 0 -235 -130 0 -130 0 0 -130 0 -130 -262 -2 -263 -3 -3 -127 -3 -128 -99 0 -100 0 0 130 0 130 -162 -2 -163 -3 -3 -262 -2 -263 -100 0 -100 0 0 265 0 265 -160 0 -160 0 0 -130 0 -130 -100 0 -100 0 0 130 0 130 -165 0 -165 0 0 -160 0 -160 135 0 135 0 0 -105 0 -105 -135 0 -135 0 0 -160 0 -160 165 0 165 0 0 130 0 130 230 0 230 0 0 -100 0 -99 -127 -3 -128 -3 -3 -137 -3 -138 -129 0 -129 0 -3 -132 -3 -133 -132 -3 -133 -3 0 -159 0 -160 165 0 165 0 0 130 0 130 130 0 130 0 0 135 0 135 130 0 130 0 0 140 0 140 265 0 265 0 0 130 0 130 100 0 100 0 0 -130 0 -130 255 -2 c140 -1 272 -2 293 -2 l37 -1 3 133 3 132 364 0 365 0 0 -130 0 -130 35 0 c21 0 48 9 66 22 29 22 30 22 97 5 37 -9 84 -17 105 -17 l37 0 0 155 0 155 -140 0 -140 0 0 135 0 135 -395 0 -395 0 0 100 0 100 265 0 265 0 0 260 0 260 100 0 100 0 0 -260 0 -260 170 0 170 0 0 290 0 290 -140 0 -140 0 0 265 0 265 -130 0 -130 0 0 135 0 135 -135 0 -135 0 0 100 0 100 135 0 135 0 0 130 0 130 100 0 100 0 0 -260 0 -260 405 0 405 0 0 -235 0 -235 -100 0 -100 0 0 130 0 130 -165 0 -165 0 0 -160 0 -159 133 -3 132 -3 3 -132 3 -133 129 0 130 0 0 -100 0 -100 -130 0 -130 0 0 -160 0 -160 160 0 160 0 0 130 0 130 100 0 100 0 0 -130 0 -130 130 0 130 0 0 -100 0 -100 -130 0 -130 0 0 -165 0 -165 160 0 159 0 3 133 3 132 103 3 102 3 0 -136 0 -135 159 0 158 0 5 158 c3 86 3 160 1 165 -2 4 -62 7 -134 7 l-129 0 0 100 0 99 133 3 132 3 -4 128 -4 127 237 0 236 0 0 -100 0 -100 -130 0 -130 0 0 -160 0 -160 130 0 130 0 0 -105 0 -105 -130 0 -130 0 0 -159 0 -158 153 -5 c83 -3 155 -4 160 -1 4 2 7 62 7 134 l0 129 130 0 129 0 3 133 3 132 233 3 232 2 0 -105 0 -105 -130 0 -130 0 0 -270 0 -270 -135 0 -135 0 2 -162 3 -163 133 -3 132 -3 0 -99 0 -100 -265 0 -265 0 0 -130 0 -130 -237 -2 -238 -3 -6 -35 c-12 -69 -53 -215 -64 -230 -7 -8 -28 -44 -48 -80 -19 -36 -54 -89 -76 -119 -29 -38 -41 -65 -41 -88 l0 -33 90 0 90 0 0 -100 0 -100 -130 0 -130 0 0 -165 0 -165 130 0 130 0 0 -100 0 -100 -130 0 -130 0 0 -130 0 -130 -105 0 -105 0 0 260 0 260 -260 0 -259 0 -3 107 -3 106 -95 24 c-52 13 -123 26 -157 30 l-63 6 0 -137 0 -136 -245 0 -246 0 3 103 3 102 138 3 137 3 0 127 0 128 -33 32 -33 32 -237 0 -237 0 0 100 0 100 119 0 c65 0 133 3 150 6 27 6 31 11 31 39 0 18 -6 48 -14 66 -40 95 -60 213 -58 347 l1 132 -115 0 -114 0 0 100 0 100 130 0 130 0 0 165 0 165 -292 -2 -293 -3 -3 -132 -3 -133 -229 0 -230 0 0 135 0 135 -162 -2 -163 -3 0 -160 0 -160 133 -3 132 -3 0 -99 0 -100 -235 0 -235 0 0 130 0 130 -295 0 -295 0 0 -160 0 -160 130 0 130 0 0 -100 0 -100 -130 0 -130 0 0 -130 0 -130 -392 -2 -393 -3 -3 -292 -2 -293 135 0 135 0 0 -105 0 -105 -135 0 -135 0 0 -290 0 -290 165 0 165 0 0 130 0 130 100 0 100 0 0 -130 0 -130 160 0 160 0 0 130 0 130 100 0 100 0 0 -130 0 -130 165 0 165 0 0 130 0 130 100 0 100 0 0 -130 0 -130 165 0 165 0 0 130 0 130 130 0 130 0 0 130 0 130 100 0 100 0 0 -130 0 -130 165 0 165 0 0 130 0 130 100 0 100 0 0 -365 0 -365 -130 0 -130 0 0 -130 0 -130 -105 0 -105 0 0 130 0 130 -160 0 -160 0 0 -160 0 -160 130 0 130 0 0 -105 0 -105 -130 0 -130 0 0 -160 0 -160 130 0 130 0 0 -236 0 -237 -127 4 -128 4 -3 -162 -2 -163 129 0 130 0 3 -132 3 -133 160 0 160 0 3 263 2 262 100 0 100 0 0 -130 0 -130 140 0 139 0 3 -132 3 -133 290 0 290 0 3 133 3 132 229 0 229 0 3 -132 3 -133 425 0 425 0 3 132 3 133 130 0 129 0 -2 162 -3 163 -155 0 -155 0 -3 -133 -3 -132 -234 0 -235 0 0 100 0 100 130 0 130 0 0 265 0 265 105 0 105 0 0 -130 0 -130 160 0 160 0 0 130 0 130 130 0 130 0 0 160 0 160 -392 2 -393 3 -3 103 -3 102 136 0 135 0 0 130 0 130 100 0 100 0 0 -130 0 -130 160 0 160 0 0 295 0 295 -260 0 -260 0 0 100 0 100 130 0 130 0 0 160 0 160 -130 0 -130 0 0 105 0 105 228 -2 227 -3 3 -262 2 -263 295 0 295 0 0 130 0 130 235 0 235 0 0 -100 0 -100 -130 0 -130 0 0 -160 0 -160 160 0 160 0 0 130 0 130 130 0 130 0 0 130 0 130 235 0 235 0 0 -100 0 -99 -132 -3 -133 -3 0 -155 0 -155 163 -3 162 -2 0 130 0 130 135 0 135 0 -2 292 -3 293 -132 3 -133 3 0 99 0 99 133 3 132 3 0 420 0 420 -132 3 -133 3 0 99 0 99 133 3 132 3 3 433 2 432 -135 0 -134 0 -3 133 -3 132 -157 3 -158 3 -2 -263 -3 -263 -232 -3 -233 -2 0 100 0 100 130 0 130 0 0 165 0 165 -130 0 -130 0 0 230 0 230 100 0 100 0 0 -130 0 -130 428 2 427 3 3 288 2 287 -135 0 -135 0 0 105 0 105 135 0 135 0 0 160 0 160 -165 0 -165 0 0 -130 0 -130 -130 0 -130 0 0 -265 0 -265 -105 0 -105 0 0 265 0 265 -130 0 -130 0 0 235 0 235 100 0 100 0 0 -135 0 -135 163 2 162 3 0 160 0 160 -132 3 -133 3 0 129 0 130 -130 0 -130 0 0 100 0 100 130 0 130 0 0 165 0 165 -425 0 -425 0 0 -165 0 -165 135 0 135 0 0 -100 0 -100 -135 0 -135 0 0 -265 0 -265 -365 0 -365 0 0 105 0 105 265 0 265 0 0 290 0 290 -135 0 -135 0 0 135 0 135 -160 0 -160 0 0 -135 0 -135 -130 0 -130 0 0 -160 0 -160 130 0 130 0 0 -100 0 -100 -130 0 -129 0 -3 -132 -3 -133 -132 -3 -133 -3 0 -129 0 -130 -235 0 -235 0 0 265 0 265 -130 0 -130 0 0 100 0 99 133 3 132 3 -4 128 -4 127 137 0 136 0 0 165 0 165 -162 -2 -163 -3 -3 -132 -3 -133 -129 0 -130 0 0 -130 0 -130 -100 0 -100 0 0 130 0 130 -130 0 -129 0 -3 133 -3 132 -697 3 -698 2 0 -165z m1340 -265 l0 -100 -105 0 -105 0 0 100 0 100 105 0 105 0 0 -100z m1840 -925 l0 -235 -100 0 -100 0 0 235 0 235 100 0 100 0 0 -235z m-1060 -130 l0 -105 -100 0 -100 0 0 105 0 105 100 0 100 0 0 -105z m2120 -260 l0 -365 -370 0 -370 0 0 365 0 365 370 0 370 0 0 -365z m-1590 -5 l0 -100 -100 0 -100 0 0 100 0 100 100 0 100 0 0 -100z m-2910 -785 l0 -105 -100 0 -100 0 0 105 0 105 100 0 100 0 0 -105z m4760 0 l0 -105 -100 0 -100 0 0 105 0 105 100 0 100 0 0 -105z m0 -670 l0 -245 -130 0 -130 0 0 -160 0 -160 130 0 130 0 0 -365 0 -365 -130 0 -130 0 0 -130 0 -130 -370 0 -370 0 0 130 0 130 -130 0 -130 0 0 99 0 99 28 3 c15 2 120 2 235 1 l207 -4 0 -129 0 -129 160 0 160 0 0 295 0 295 -130 0 -130 0 0 100 0 100 130 0 130 0 0 265 0 265 135 0 135 0 0 140 0 140 100 0 100 0 0 -245z m790 135 l0 -110 -100 0 -100 0 0 110 0 110 100 0 100 0 0 -110z m-264 -565 l0 -390 132 -3 132 -3 0 -99 0 -99 -132 -3 -133 -3 3 -262 2 -262 -132 -3 -133 -3 -3 -132 -3 -133 -99 0 -100 0 0 235 0 235 130 0 130 0 0 660 0 661 103 -3 102 -3 1 -390z m-5026 -630 l0 -235 -100 0 -99 0 -3 133 -3 132 -127 3 -128 3 0 99 0 100 230 0 230 0 0 -235z m530 135 l0 -100 -105 0 -105 0 0 100 0 100 105 0 105 0 0 -100z m-1123 -170 l62 0 3 -127 3 -128 133 -3 132 -3 0 -99 0 -100 -235 0 -235 0 0 130 0 130 -265 0 -265 0 0 98 c0 54 2 101 4 103 2 2 139 3 303 2 164 -2 326 -3 360 -3z m3513 -100 l0 -100 -105 0 -105 0 0 100 0 100 105 0 105 0 0 -100z m-4500 -260 l0 -100 -100 0 -100 0 0 100 0 100 100 0 100 0 0 -100z m2110 -135 l0 -235 -105 0 -105 0 0 135 0 135 -130 0 -130 0 0 100 0 100 235 0 235 0 0 -235z m-1320 -260 l0 -235 -100 0 -99 0 -3 128 -3 127 -162 3 -163 2 0 -130 0 -130 -100 0 -100 0 0 229 0 230 33 4 c17 2 182 5 365 5 l332 2 0 -235z m530 -135 l0 -100 -100 0 -100 0 0 100 0 100 100 0 100 0 0 -100z m1860 -130 l0 -230 -100 0 -100 0 0 230 0 230 100 0 100 0 0 -230z m-260 -395 l0 -105 -105 0 -105 0 0 105 0 105 105 0 105 0 0 -105z m780 -160 l0 -265 135 0 135 0 0 -365 0 -365 -105 0 -105 0 0 130 0 130 -130 0 -130 0 0 130 0 130 -130 0 -130 0 0 105 0 105 130 0 130 0 0 265 0 265 100 0 100 0 0 -265z m530 30 l0 -235 -100 0 -100 0 0 235 0 235 100 0 100 0 0 -235z m-1580 -135 l0 -100 -110 0 -110 0 0 100 0 100 110 0 110 0 0 -100z m530 0 l0 -100 -100 0 -100 0 0 100 0 100 100 0 100 0 0 -100z m-810 -265 l0 -105 -100 0 -100 0 0 105 0 105 100 0 100 0 0 -105z m810 -265 l0 -100 -100 0 -100 0 0 100 0 100 100 0 100 0 0 -100z m-810 -260 l0 -100 -100 0 -100 0 0 100 0 100 100 0 100 0 0 -100z m550 -295 l0 -135 130 0 130 0 0 -100 0 -100 -235 0 -235 0 0 235 0 235 105 0 105 0 0 -135z m780 30 l0 -105 -100 0 -100 0 0 105 0 105 100 0 100 0 0 -105z"></path><path id="peHOkbK4M" d="M5900 6030 l0 -160 160 0 160 0 0 160 0 160 -160 0 -160 0 0 -160z"></path><path id="p1E9EIgrB0" d="M7218 7525 c-1 -140 -2 -272 -2 -292 l-1 -38 133 -3 132 -3 0 -129 0 -130 165 0 165 0 0 160 0 160 -135 0 -135 0 0 100 0 99 133 3 132 3 3 140 c1 77 0 150 -3 163 l-5 22 -290 0 -290 0 -2 -255z"></path><path id="pE25p6sYk" d="M4580 7090 l0 -160 160 0 160 0 0 160 0 160 -160 0 -160 0 0 -160z"></path><path id="ppzWFuZaL" d="M3530 4979 l0 -161 143 4 c78 3 150 8 160 12 15 7 17 25 17 157 l0 149 -160 0 -160 0 0 -161z"></path><path id="pkw4NViiN" d="M4210 4842 c0 -36 2 -38 49 -55 27 -9 63 -17 80 -17 31 0 31 0 31 55 l0 55 -80 0 -80 0 0 -38z"></path><path id="ptNBNNvhk" d="M3077 4783 c-14 -13 -6 -83 19 -174 14 -52 36 -136 50 -188 l25 -94 -22 -61 c-12 -34 -26 -66 -30 -72 -14 -18 -39 -210 -39 -298 0 -154 25 -279 76 -378 74 -143 190 -278 304 -350 186 -119 436 -164 681 -122 135 23 197 51 373 170 17 12 58 50 90 85 148 159 216 337 223 581 13 399 -214 725 -597 860 -59 20 -82 22 -270 23 l-205 0 -90 -33 c-124 -46 -119 -46 -225 -17 -266 73 -344 88 -363 68z m1001 -239 c149 -28 306 -132 403 -264 73 -98 129 -264 128 -374 -2 -239 -166 -481 -402 -591 -168 -79 -348 -75 -522 10 -147 72 -240 162 -315 306 -93 178 -94 355 -4 548 48 101 54 149 31 217 -8 22 -17 54 -20 73 -6 28 -4 32 9 27 31 -12 159 -36 191 -36 18 0 65 15 105 34 68 32 171 61 243 68 35 4 56 1 153 -18z"></path><path id="pAqYZJ9JA" d="M3975 4282 c-116 -48 -171 -87 -270 -186 -144 -145 -195 -244 -195 -375 0 -87 8 -117 47 -173 32 -47 76 -62 149 -53 61 7 62 8 115 139 40 98 38 137 -12 191 -17 19 -17 21 16 67 38 52 117 118 179 150 l40 20 43 -46 c58 -62 89 -62 214 2 l94 47 3 45 c7 94 -23 152 -99 190 -30 16 -58 20 -136 20 -90 -1 -105 -4 -188 -38z"></path><path id="p1BiosYjTU" d="M4842 4438 l3 -163 163 -3 162 -2 0 165 0 165 -165 0 -165 0 2 -162z"></path><path id="plZpA3WFQ" d="M4290 2990 l0 -40 40 0 40 0 0 40 0 40 -40 0 -40 0 0 -40z"></path><path id="pTn4xCb6a" d="M82 1008 l3 -953 953 -3 952 -2 0 955 0 955 -955 0 -955 0 2 -952z m1578 2 l0 -630 -625 0 -625 0 0 630 0 630 625 0 625 0 0 -630z"></path><path id="p17hDUSBgu" d="M612 1008 l3 -423 423 -3 422 -2 0 425 0 425 -425 0 -425 0 2 -422z"></path><path id="pfOzrUCRV" d="M5900 1005 l0 -955 953 2 952 3 3 953 2 952 -955 0 -955 0 0 -955z m1580 5 l0 -630 -630 0 -630 0 0 630 0 630 630 0 630 0 0 -630z"></path><path id="p1C3s709XM" d="M6430 1005 l0 -425 423 2 422 3 3 423 2 422 -425 0 -425 0 0 -425z"></path></g></g><g id="l66Lhv1biZ4usuZz5adwX00" fill="rgb(255,255,255)" style="transform: none;"><g style="transform: none;"><path id="pkiopm4To" d="M0 3950 l0 -3950 3960 0 3960 0 0 3950 0 3950 -3960 0 -3960 0 0 -3950z m1960 2875 l0 -925 -925 0 -925 0 0 925 0 925 925 0 925 0 0 -925z m1598 788 l3 -133 129 0 130 0 0 -130 0 -130 130 0 130 0 0 130 0 130 130 0 129 0 3 133 3 132 133 3 132 3 0 -136 0 -135 -136 0 -135 0 2 -127 1 -128 -131 -3 -131 -3 0 -129 0 -130 130 0 130 0 0 -265 0 -265 265 0 265 0 0 130 0 129 133 3 132 3 3 133 3 132 129 0 130 0 0 130 0 130 -130 0 -130 0 0 130 0 130 130 0 130 0 0 135 0 135 130 0 130 0 0 -135 0 -135 135 0 135 0 0 -260 0 -260 -265 0 -265 0 0 -135 0 -135 395 0 395 0 0 265 0 265 135 0 135 0 0 130 0 130 -135 0 -135 0 0 135 0 135 395 0 395 0 0 -135 0 -135 -130 0 -130 0 0 -130 0 -130 130 0 130 0 0 -130 0 -129 133 -3 132 -3 0 -130 0 -130 -132 -3 -133 -3 0 136 0 135 -130 0 -130 0 0 -265 0 -265 130 0 130 0 0 -265 0 -265 135 0 135 0 0 265 0 265 130 0 130 0 0 130 0 130 135 0 135 0 0 -130 0 -130 -135 0 -135 0 0 -135 0 -135 135 0 135 0 -2 -257 -3 -258 -397 -3 -398 -2 0 130 0 130 -130 0 -130 0 0 -260 0 -260 130 0 130 0 0 -135 0 -135 -130 0 -130 0 0 -130 0 -130 263 2 262 3 3 263 2 263 128 -3 127 -3 3 -132 3 -133 134 0 135 0 -2 -402 -3 -403 -132 -3 -133 -3 0 -129 0 -129 133 -3 132 -3 0 -390 0 -390 -132 -3 -133 -3 0 -129 0 -130 118 -1 c64 -1 124 -2 132 -3 13 -1 15 -39 18 -263 l2 -263 -135 0 -135 0 0 -130 0 -131 -131 3 -131 3 0 125 -1 125 132 3 131 3 0 129 0 130 -265 0 -265 0 0 -130 0 -130 -130 0 -130 0 0 -130 0 -130 -130 0 -130 0 0 130 0 130 130 0 130 0 0 130 0 130 -265 0 -265 0 0 -130 0 -130 -265 0 -265 0 -2 263 -3 262 -257 3 -258 2 0 -135 0 -135 130 0 130 0 0 -130 0 -130 -130 0 -130 0 0 -130 0 -130 260 0 260 0 0 -265 0 -265 -130 0 -130 0 0 130 0 130 -130 0 -130 0 0 -130 0 -130 -135 0 -136 0 3 -132 3 -133 393 -3 392 -2 0 -130 0 -130 -130 0 -130 0 0 -130 0 -130 -130 0 -130 0 0 130 0 130 -135 0 -135 0 0 -265 0 -265 -130 0 -130 0 0 -130 0 -130 265 0 264 0 3 131 3 130 125 0 125 0 3 -130 3 -131 -130 0 -130 0 -3 -133 -3 -132 -395 0 -395 0 -3 133 -3 132 -259 0 -259 0 -3 -132 -3 -133 -260 0 -260 0 -3 133 -3 132 -139 0 -140 0 0 130 0 130 -130 0 -130 0 -2 -262 -3 -263 -130 0 -130 0 -3 133 -3 132 -130 0 -130 0 3 131 3 131 128 -1 127 -2 0 265 0 266 -130 0 -130 0 0 130 0 130 130 0 130 0 0 135 0 135 -130 0 -130 0 0 130 0 130 130 0 130 0 0 -130 0 -130 135 0 135 0 0 130 0 130 130 0 130 0 0 395 0 395 -130 0 -130 0 0 -130 0 -130 -135 0 -135 0 0 130 0 130 -130 0 -130 0 0 -130 0 -130 -130 0 -130 0 0 -130 0 -130 -133 0 -134 0 3 130 2 130 -134 0 -134 0 0 -130 0 -130 -136 0 -135 0 2 128 2 127 -131 3 -132 3 0 -131 0 -130 -130 0 -130 0 0 130 0 130 -130 0 -130 0 0 -130 0 -130 -135 0 -135 0 0 260 0 260 135 0 135 0 0 135 0 135 -135 0 -135 0 2 263 3 262 393 0 392 0 0 132 0 132 131 3 130 3 0 125 0 125 -130 3 -131 3 0 129 0 130 265 0 265 0 0 -130 0 -130 265 0 265 0 0 130 0 129 -132 3 -133 3 0 130 0 130 133 3 132 3 0 -136 0 -135 260 0 259 0 3 133 3 132 263 3 262 2 0 -135 0 -135 -130 0 -130 0 0 -130 0 -130 113 0 112 0 1 -132 c0 -133 22 -255 60 -347 8 -19 12 -36 9 -39 -3 -3 -69 -6 -147 -6 l-143 -1 -3 -132 -3 -133 238 0 237 0 33 -32 c33 -32 33 -32 33 -130 l0 -97 -137 -3 -138 -3 -3 -132 -3 -133 276 0 275 0 0 135 0 136 38 -7 c20 -4 78 -17 127 -29 l90 -22 3 -106 3 -107 259 0 260 0 0 -260 0 -260 -130 0 -130 0 0 -265 0 -265 -130 0 -130 0 0 -135 0 -135 130 0 130 0 0 -130 0 -130 130 0 130 0 0 -130 0 -130 135 0 135 0 0 395 0 395 -135 0 -135 0 2 263 3 262 133 3 132 3 0 129 0 130 130 0 130 0 0 130 0 130 -130 0 -130 0 0 135 c0 103 3 135 13 134 6 -1 65 -1 130 0 l117 1 0 130 0 129 -91 3 -90 3 41 55 c23 30 58 84 77 120 20 36 41 72 48 80 11 15 52 161 64 230 l6 35 238 3 237 2 0 130 0 130 265 0 265 0 0 130 0 129 -132 3 -133 3 -3 133 -3 132 136 0 135 0 0 270 0 270 130 0 130 0 0 135 0 135 -262 -2 -263 -3 -3 -132 -3 -133 -129 0 -130 0 0 -128 c0 -71 -2 -131 -4 -133 -2 -2 -61 -3 -130 -1 l-126 3 0 130 0 129 130 0 130 0 0 135 0 135 -130 0 -130 0 0 130 0 130 130 0 130 0 0 130 0 130 -266 0 -265 0 2 -127 1 -128 -131 -3 -131 -3 0 -129 0 -130 128 0 c71 0 131 -2 133 -4 2 -2 3 -63 1 -135 l-3 -131 -130 0 -129 0 0 135 0 136 -132 -3 -133 -3 -3 -132 -3 -133 -129 0 -130 0 0 136 0 135 130 -3 130 -3 0 133 0 132 -130 0 -130 0 0 130 0 130 -130 0 -130 0 0 -130 0 -130 -130 0 -130 0 0 130 0 130 130 0 130 0 0 130 0 130 -130 0 -129 0 -3 133 -3 132 -132 3 -133 3 0 129 0 130 135 0 135 0 0 -130 0 -130 130 0 130 0 0 265 0 265 -405 0 -405 0 0 260 0 260 -130 0 -130 0 0 -130 0 -130 -135 0 -135 0 0 -130 0 -130 135 0 135 0 0 -135 0 -135 130 0 130 0 0 -265 0 -265 140 0 140 0 0 -260 0 -260 -140 0 -140 0 0 260 0 260 -130 0 -130 0 0 -260 0 -260 -265 0 -265 0 0 -130 0 -130 395 0 395 0 0 -135 0 -135 140 0 140 0 0 -125 c0 -139 4 -134 -74 -110 -70 21 -138 19 -169 -5 -14 -11 -28 -20 -31 -20 -3 0 -6 59 -6 130 l0 130 -395 0 -394 0 -3 -132 c-2 -73 -6 -132 -10 -130 -5 1 -123 2 -263 2 l-254 0 0 118 c0 64 0 123 0 130 -1 9 -34 12 -131 12 l-130 0 0 -130 0 -130 -265 0 -265 0 0 -140 0 -140 -130 0 -130 0 0 -135 0 -135 -130 0 -130 0 0 -130 0 -130 -135 0 -135 0 0 130 0 129 133 3 132 3 3 133 3 132 129 0 129 0 3 138 3 137 128 3 127 3 0 129 0 130 -260 0 -260 0 0 -130 0 -130 -135 0 -135 0 0 130 0 130 135 0 135 0 0 135 0 135 -135 0 -135 0 0 130 0 130 135 0 135 0 0 -130 0 -130 130 0 130 0 0 130 0 130 130 0 130 0 0 -265 0 -265 130 0 130 0 1 248 c1 136 2 254 3 262 1 12 24 15 134 18 l132 3 0 -131 0 -131 132 3 131 3 1 125 1 125 263 3 262 2 0 130 0 130 130 0 130 0 0 265 0 265 -130 0 -131 0 3 131 3 131 128 -1 127 -2 0 135 0 136 -130 0 -130 0 0 130 0 130 130 0 130 0 0 130 0 130 -130 0 -130 0 0 135 0 135 668 -2 667 -3 3 -132z m4217 115 c3 -13 5 -72 3 -133 l-3 -110 -132 -3 -133 -3 0 -129 0 -130 135 0 135 0 0 -130 0 -130 -135 0 -135 0 0 130 0 129 -132 3 c-73 2 -132 6 -130 11 1 4 2 122 2 262 l0 255 260 0 260 0 5 -22z m-2905 -638 l0 -130 -130 0 -130 0 0 130 0 130 130 0 130 0 0 -130z m-1050 -2099 c0 -104 -2 -120 -17 -126 -10 -4 -69 -10 -130 -13 l-113 -5 0 132 0 131 130 0 130 0 0 -119z m520 -167 c0 -17 -4 -24 -12 -20 -7 2 -30 10 -50 17 -53 17 -47 29 12 29 47 0 50 -1 50 -26z m-1120 -88 c52 -14 120 -32 150 -41 30 -8 85 -22 122 -30 64 -14 71 -14 120 6 155 62 163 63 348 63 156 0 182 -2 240 -23 152 -53 269 -129 375 -242 109 -119 169 -237 206 -407 43 -199 -2 -439 -116 -617 -39 -61 -138 -170 -181 -199 -176 -119 -238 -147 -373 -170 -124 -21 -199 -20 -318 3 -180 35 -308 104 -439 235 -162 162 -244 357 -244 582 0 77 27 246 45 280 8 16 15 32 15 36 0 3 10 28 22 55 12 26 20 53 18 58 -1 6 -15 57 -31 115 -15 58 -40 148 -54 200 -24 89 -26 120 -8 120 5 0 51 -11 103 -24z m1920 -301 l0 -136 -132 3 -133 3 -3 133 -3 132 136 0 135 0 0 -135z m-3180 -3430 l0 -925 -923 2 -922 3 -3 923 -2 922 925 0 925 0 0 -925z m5818 3 l-3 -923 -922 -3 -923 -2 0 925 0 925 925 0 925 0 -2 -922z"></path><path id="pxGbxgxDj" d="M380 6820 l0 -660 656 2 656 3 -1 645 c-1 355 -1 651 -1 658 0 9 -138 12 -655 12 l-655 0 0 -660z m1050 5 l0 -395 -395 0 -395 0 0 395 0 395 395 0 395 0 0 -395z"></path><path id="pmqR1pPer" d="M3290 7350 l0 -130 135 0 135 0 0 130 0 130 -135 0 -135 0 0 -130z"></path><path id="p1DS72Mltz" d="M5140 6425 l0 -265 130 0 130 0 0 265 0 265 -130 0 -130 0 0 -265z"></path><path id="pDcppVkVD" d="M4080 6295 l0 -135 130 0 130 0 0 135 0 135 -130 0 -130 0 0 -135z"></path><path id="p1pfsJull" d="M5660 6035 l0 -395 400 0 400 0 0 395 0 395 -400 0 -400 0 0 -395z m530 -5 l0 -130 -130 0 -130 0 0 130 0 130 130 0 130 0 0 -130z"></path><path id="pVcCpu4jn" d="M4610 6030 l0 -130 130 0 130 0 0 130 0 130 -130 0 -130 0 0 -130z"></path><path id="pERnwKLnH" d="M1700 5378 c0 -2 -1 -63 -3 -135 l-2 -133 132 0 133 0 0 135 0 135 -130 0 c-71 0 -130 -1 -130 -2z"></path><path id="pwVUCOvWl" d="M6460 5245 l0 -135 130 0 130 0 0 135 0 135 -130 0 -130 0 0 -135z"></path><path id="p154wuDOfz" d="M6460 4710 l0 -140 -135 0 -135 0 0 -265 0 -265 -130 0 -130 0 0 -130 0 -130 130 0 130 0 0 -265 0 -265 -130 0 -130 0 0 129 0 129 -33 4 c-18 2 -136 3 -262 3 l-230 0 -3 -132 -3 -133 130 0 130 0 3 -130 3 -131 395 0 395 0 3 131 3 130 129 0 130 0 0 -265 0 -265 130 0 129 0 3 133 3 132 133 3 132 3 -1 262 -1 262 131 3 131 3 0 129 0 129 -131 3 -130 3 -2 390 -2 390 -132 3 -133 3 0 -661 0 -660 -130 0 -130 0 0 395 0 395 -130 0 -130 0 0 130 0 130 130 0 130 0 0 275 0 275 -130 0 -130 0 0 -140z"></path><path id="pXCY3M1UE" d="M7250 4710 l0 -140 130 0 130 0 0 140 0 140 -130 0 -130 0 0 -140z"></path><path id="pGnRcade7" d="M1700 3778 c0 -2 -1 -61 -3 -133 l-3 -130 131 0 130 0 3 -133 3 -133 -133 3 -133 3 -1 120 c0 67 -3 125 -6 131 -4 6 -145 10 -395 9 l-388 0 -3 -132 -3 -133 266 0 265 0 0 -130 0 -130 -365 -1 c-201 -1 -377 -1 -392 -2 l-28 -1 -3 132 -3 132 -129 0 -130 0 0 -130 0 -129 128 -3 127 -3 3 -262 2 -263 130 0 130 0 0 130 0 131 133 -3 132 -3 0 -127 0 -128 133 0 132 0 0 265 0 266 263 -1 262 -1 3 130 3 131 129 0 129 0 3 -131 3 -130 128 0 127 0 0 -135 0 -134 135 0 135 0 0 265 0 265 -265 0 -265 0 0 265 0 265 -260 0 c-143 0 -260 -1 -260 -2z"></path><path id="pou6PS7dP" d="M2482 3650 l3 -131 133 -2 132 -2 0 133 0 132 -135 0 -136 0 3 -130z"></path><path id="p18ebCXvSN" d="M4888 3512 c-16 -3 -18 -18 -18 -133 l0 -129 135 0 136 0 -3 133 -3 132 -115 1 c-63 0 -123 -2 -132 -4z"></path><path id="p1CtSxDHhC" d="M1699 2713 c0 -5 -1 -62 -1 -128 l0 -120 131 -3 131 -3 0 131 0 130 -130 0 c-71 0 -130 -3 -131 -7z"></path><path id="peCW9CFb8" d="M3560 2460 l0 -260 -135 0 -135 0 0 -135 0 -135 -140 0 -140 0 0 -130 0 -130 -130 0 -130 0 0 -135 0 -135 130 0 130 0 0 135 0 135 140 0 140 0 0 130 0 130 135 0 135 0 0 -130 0 -130 130 0 130 0 0 130 0 130 -130 0 -130 0 0 135 0 135 130 0 130 0 0 260 0 260 -130 0 -130 0 0 -260z"></path><path id="pgfufqUZC" d="M4610 1935 l0 -265 130 0 130 0 0 265 0 265 -130 0 -130 0 0 -265z"></path><path id="p4paqib19" d="M3560 1270 l0 -130 130 0 130 0 0 130 0 130 -130 0 -130 0 0 -130z"></path><path id="pSUcDEamM" d="M2750 1010 l0 -130 130 0 130 0 0 130 0 130 -130 0 -130 0 0 -130z"></path><path id="p15FpiCw5N" d="M3290 615 l0 -265 265 0 265 0 0 130 0 130 -130 0 -130 0 0 135 0 135 -135 0 -135 0 0 -265z"></path><path id="pEkamtxW8" d="M4080 745 l0 -135 130 0 130 0 0 135 0 135 -130 0 -130 0 0 -135z"></path><path id="pXZQTiguQ" d="M3895 4594 c-87 -13 -178 -39 -244 -70 -72 -34 -75 -35 -130 -23 -31 6 -87 21 -124 31 -37 11 -70 18 -73 16 -3 -4 21 -106 52 -216 5 -16 -7 -52 -39 -120 -40 -88 -53 -133 -72 -268 -11 -77 21 -230 70 -329 75 -153 166 -245 320 -320 72 -35 112 -48 196 -61 99 -16 112 -16 210 0 337 55 577 333 578 672 2 269 -152 509 -401 627 -87 41 -262 72 -343 61z m374 -324 c68 -34 116 -116 97 -165 -7 -20 -188 -108 -207 -100 -8 3 -30 25 -49 50 -19 24 -41 47 -48 50 -8 3 -46 -12 -85 -32 -79 -42 -181 -135 -212 -195 l-19 -37 22 -28 c53 -67 54 -73 23 -150 -48 -118 -57 -130 -93 -135 -48 -7 -83 8 -112 50 -35 52 -46 86 -46 143 0 99 65 214 195 345 99 99 154 138 270 186 108 45 199 51 264 18z"></path><path id="p4zQg9jUA" d="M380 1010 l0 -660 655 0 655 0 1 625 c1 344 2 632 2 640 0 8 -1 24 -2 35 -1 20 -8 20 -656 20 l-655 0 0 -660z m1050 -5 l0 -395 -392 2 -393 3 -3 393 -2 392 395 0 395 0 0 -395z"></path><path id="p1CEatiRqi" d="M6190 1010 l0 -660 660 0 660 0 0 660 0 660 -660 0 -660 0 0 -660z m1058 -2 l-3 -393 -392 -3 -393 -2 0 395 0 395 395 0 395 0 -2 -392z"></path></g></g></svg>