<?xml version="1.0" standalone="no"?>
<!DOCTYPE svg PUBLIC "-//W3C//DTD SVG 20010904//EN"
 "http://www.w3.org/TR/2001/REC-SVG-20010904/DTD/svg10.dtd">
<svg version="1.0" xmlns="http://www.w3.org/2000/svg"
 width="300.000000pt" height="299.000000pt" viewBox="0 0 300.000000 299.000000"
 preserveAspectRatio="xMidYMid meet">
<metadata>
Created by potrace 1.10, written by Peter Selinger 2001-2011
</metadata>
<g transform="translate(0.000000,299.000000) scale(0.100000,-0.100000)"
fill="#000000" stroke="none">
<path d="M40 2610 l0 -350 350 0 350 0 0 350 0 350 -350 0 -350 0 0 -350z
m110 300 c14 -4 19 -8 12 -9 -7 -1 -24 -13 -37 -27 l-25 -27 0 -239 0 -240 30
-30 c17 -16 30 -31 30 -34 0 -9 -59 -3 -65 7 -9 13 -9 585 0 599 7 11 19 11
55 0z m539 -4 c8 -9 11 -99 9 -307 l-3 -294 -23 -3 c-48 -7 -55 6 -20 37 l33
29 3 236 3 237 -34 34 c-27 27 -31 35 -18 38 30 8 38 7 50 -7z m-47 -296 l3
-250 -252 0 -253 0 0 250 0 250 250 0 249 0 3 -250z"/>
<path d="M240 2610 l0 -150 150 0 150 0 0 150 0 150 -150 0 -150 0 0 -150z
m255 -5 l0 -100 -99 -3 c-73 -2 -102 1 -108 10 -9 15 -11 159 -2 183 5 13 22
15 108 13 l101 -3 0 -100z"/>
<path d="M940 2908 l0 -53 -50 3 -50 4 0 -54 0 -53 50 3 50 4 0 -101 0 -101
-50 0 -50 0 0 -50 0 -50 50 0 50 0 0 -50 0 -50 -50 0 -50 0 0 -50 0 -50 50 0
50 0 0 50 0 50 50 0 50 0 0 -50 0 -50 50 0 50 0 0 -150 0 -150 -50 0 -50 0 0
50 0 50 -50 0 -50 0 0 -50 0 -50 -50 0 -50 0 0 50 0 50 -50 0 -50 0 0 50 0 50
-50 0 -50 0 0 -50 0 -50 -50 0 -50 0 0 50 0 50 -50 0 -50 0 0 -50 0 -50 -50 0
-50 0 0 50 0 50 -50 0 -50 0 0 -50 0 -50 -50 0 -50 0 0 50 0 50 -50 0 -50 0 0
-100 0 -100 53 0 52 0 -3 -50 -4 -50 -49 0 -49 0 0 -100 0 -100 150 0 150 0 0
-50 0 -50 50 0 50 0 0 -50 0 -50 -50 0 -50 0 0 -50 0 -50 100 0 100 0 0 50 0
50 100 0 100 0 0 -50 0 -50 -50 0 -50 0 0 -50 0 -50 50 0 50 0 0 50 0 50 100
0 100 0 0 -50 0 -50 100 0 100 0 0 50 0 50 -50 0 -50 0 0 50 0 50 45 0 45 0 0
63 c1 34 7 79 14 100 l14 37 -59 0 -59 0 0 50 0 50 93 0 c106 0 117 6 117 62
l0 38 -55 0 -55 0 0 50 0 50 105 0 105 0 0 -50 c0 -27 3 -50 6 -50 3 0 25 5
50 11 43 11 44 13 44 50 l0 39 101 0 102 0 -7 31 c-3 17 -6 62 -6 100 l0 69
-49 0 -49 0 5 100 6 100 -52 0 -51 0 0 50 0 50 51 0 52 0 -7 50 -7 50 57 0
c54 0 56 1 50 23 -3 12 -6 35 -6 50 0 28 -1 28 -47 26 l-48 -3 -3 52 -3 52 55
0 56 0 0 -50 0 -50 50 0 50 0 0 -150 0 -150 -56 0 c-54 0 -56 -1 -50 -22 3
-13 6 -58 6 -100 l0 -78 51 0 51 0 -4 -50 -3 -50 53 0 52 0 0 -50 0 -50 -52 0
-53 0 0 -50 0 -50 52 0 53 0 0 -50 0 -50 -35 0 c-19 0 -35 -2 -35 -5 0 -5 45
-74 59 -91 5 -6 13 -32 16 -58 l7 -46 95 0 96 0 -5 -50 -5 -50 98 0 99 0 0 50
0 50 55 0 55 0 0 100 0 100 -55 0 -54 0 6 -50 6 -50 -107 0 -106 0 0 50 0 50
54 0 53 0 -5 50 -5 50 157 0 156 0 0 -51 0 -50 48 3 47 3 3 98 3 97 44 0 45 0
0 -50 0 -50 53 0 54 0 -5 -100 -5 -100 57 0 56 0 0 -50 0 -50 -55 0 -56 0 3
-147 3 -148 53 -3 53 -3 -3 -52 -3 -52 -50 0 -50 0 0 -100 0 -100 50 0 50 0
-3 53 -4 54 54 -3 53 -3 3 152 3 152 -56 0 -55 0 0 50 0 50 55 0 55 0 0 150 0
150 -55 0 -55 0 0 50 0 50 55 0 55 0 0 100 0 100 -50 0 -50 0 0 -50 0 -50
-106 0 -106 0 4 50 3 50 -47 0 -48 0 0 50 0 50 -53 0 -52 0 0 -50 0 -50 53 0
52 0 0 -50 0 -50 -105 0 -106 0 7 50 7 50 -107 0 -106 0 0 -100 0 -100 -97 0
-98 0 0 50 0 50 53 0 52 0 0 50 0 50 -52 0 -53 0 0 50 0 50 100 0 100 0 0 100
0 100 -51 0 -51 0 5 -50 5 -50 -54 0 -54 0 3 50 4 50 -51 0 -51 0 0 34 c0 19
-3 41 -6 50 -5 14 12 16 147 16 l154 0 0 50 0 50 -53 0 -53 0 7 50 7 50 -52 0
-51 0 0 -50 0 -50 -52 0 -53 0 3 101 4 101 -53 -3 -54 -3 -1 52 -1 52 104 0
103 0 0 -50 0 -50 50 0 50 0 0 50 0 50 -50 0 -50 0 0 50 0 50 -154 0 -154 0 2
-47 c0 -27 -2 -49 -6 -50 -5 -2 -48 -3 -98 -3 l-90 0 0 50 0 50 -100 0 -100 0
0 -50 0 -50 -55 0 -55 0 0 -52 0 -53 -50 0 -50 0 0 103 0 102 -50 0 -50 0 0
-52z m807 6 c22 -6 21 -7 -7 -31 -26 -22 -30 -31 -30 -77 0 -58 14 -78 63 -90
26 -6 27 -9 27 -69 1 -70 13 -100 56 -128 20 -13 24 -19 12 -19 -9 0 -30 -17
-47 -37 l-31 -38 0 107 c0 100 -2 108 -26 137 -14 17 -34 31 -45 31 -12 0 -24
12 -33 33 -7 19 -25 43 -39 54 l-26 20 28 21 c16 11 32 33 36 49 9 39 23 47
62 37z m-747 -87 c0 -66 11 -85 65 -115 18 -10 18 -11 2 -12 -35 0 -67 -45
-67 -93 0 -44 16 -68 65 -95 16 -9 17 -11 4 -12 -25 0 -67 -38 -72 -63 -3 -21
-4 -21 -12 -2 -12 29 -46 65 -62 65 -7 0 -13 5 -13 10 0 6 5 10 12 10 6 0 22
10 35 22 21 19 23 30 23 113 0 78 -3 96 -21 119 -11 14 -28 26 -37 26 -11 0
-4 10 21 31 20 17 37 37 37 45 0 8 5 14 10 14 6 0 10 -28 10 -63z m450 -21 l0
-53 -50 5 -50 5 0 -51 0 -50 -51 -4 c-28 -1 -51 -2 -52 -1 -1 1 -1 47 1 102
l3 101 100 0 99 0 0 -54z m91 -22 c-27 -22 -31 -32 -31 -76 0 -42 4 -54 29
-77 28 -26 28 -28 10 -39 -11 -7 -28 -27 -39 -45 -12 -18 -20 -25 -20 -16 0 9
-11 28 -25 43 -19 20 -33 26 -66 26 -61 0 -89 -29 -89 -91 0 -43 4 -51 34 -76
34 -26 34 -27 13 -38 -12 -5 -31 -24 -42 -41 l-21 -31 -13 29 c-7 16 -25 34
-40 40 -47 18 -56 25 -59 44 -6 28 -42 64 -66 64 -21 1 -21 1 -1 12 11 6 30
20 43 31 47 43 17 157 -42 157 -16 0 -13 4 13 17 21 11 39 30 49 52 13 32 16
34 23 16 4 -11 8 -43 8 -71 1 -73 23 -97 86 -97 40 0 52 4 72 27 12 15 23 36
23 47 0 14 9 21 30 26 34 6 70 45 70 74 0 16 8 19 41 19 l41 0 -31 -26z m-399
-174 l3 -50 -52 0 -53 0 0 50 0 50 49 0 49 0 4 -50z m908 -90 c6 0 10 -4 10
-10 0 -6 -28 -10 -65 -10 -36 0 -65 3 -65 6 0 3 11 15 24 25 14 11 28 29 31
40 6 19 9 18 31 -15 14 -20 29 -36 34 -36z m-600 -10 l0 -50 -52 0 -53 0 0 50
0 50 53 0 52 0 0 -50z m-308 -100 l-4 -50 56 0 56 0 0 -50 0 -50 51 0 51 0 -4
50 -3 50 53 0 52 0 0 -50 0 -50 -50 0 -50 0 0 -50 0 -50 50 0 50 0 0 -100 0
-100 -50 0 -50 0 0 100 0 100 -52 0 -53 0 3 50 4 50 -56 0 -56 0 0 50 0 50
-50 0 -50 0 0 50 0 50 53 0 52 0 -3 -50z m708 -150 l0 -100 -50 0 -50 0 0 100
0 100 50 0 50 0 0 -100z m88 -30 c4 0 13 -4 21 -9 12 -8 8 -15 -17 -36 -28
-23 -32 -33 -32 -75 0 -42 4 -52 31 -74 l31 -26 -31 -26 c-26 -22 -31 -33 -31
-72 0 -64 27 -92 91 -92 52 0 70 -13 40 -29 -50 -27 -48 -145 4 -165 9 -3 56
-6 103 -6 94 0 122 12 141 60 9 21 10 17 8 -25 -2 -41 -6 -50 -22 -53 -28 -6
-56 -32 -72 -69 -12 -30 -17 -33 -58 -33 -42 0 -46 2 -60 36 -21 51 -41 63
-102 64 -29 0 -53 2 -53 4 0 2 14 18 30 36 22 24 30 42 30 70 0 46 -30 88 -67
92 -20 2 -29 11 -38 38 -7 24 -22 40 -43 50 -38 18 -40 26 -7 34 26 7 55 51
55 86 0 32 -27 78 -51 85 -20 7 -19 8 12 35 31 25 33 32 37 101 l4 73 19 -37
c11 -20 23 -37 27 -37z m-415 -83 c8 -13 30 -27 47 -30 31 -7 31 -8 28 -59
l-3 -53 -50 0 -50 0 -3 69 c-3 73 -20 111 -54 122 -18 5 -17 9 16 39 20 18 37
39 37 46 1 8 5 -14 9 -48 4 -34 14 -73 23 -86z m573 67 c-5 -13 -66 -21 -66
-8 0 3 11 15 24 25 14 11 28 30 33 42 7 20 8 18 11 -11 2 -19 1 -40 -2 -48z
m-831 -94 c36 -12 36 -12 33 -63 l-3 -52 -43 -3 c-64 -5 -72 7 -72 103 0 45 3
85 7 89 4 4 15 -9 25 -28 12 -23 29 -38 53 -46z m-1110 -99 c33 -6 45 -22 45
-60 l0 -36 -30 37 c-17 20 -40 38 -52 40 -29 4 -42 29 -34 62 l7 28 22 -34
c13 -18 32 -35 42 -37z m185 -11 l0 -50 50 0 50 0 0 50 0 50 50 0 50 0 0 -100
0 -100 100 0 100 0 0 -50 0 -50 50 0 50 0 0 50 0 50 50 0 50 0 0 50 0 50 50 0
50 0 0 -100 0 -100 -100 0 -100 0 0 -100 0 -100 -100 0 -100 0 0 50 0 50 -150
0 -150 0 0 50 0 50 100 0 100 0 0 50 0 50 -150 0 -150 0 0 -50 0 -50 -50 0
-50 0 0 50 0 50 50 0 50 0 0 100 0 100 50 0 50 0 0 -50z m400 0 l0 -50 -50 0
-50 0 0 50 0 50 50 0 50 0 0 -50z m1561 -17 c13 -35 38 -63 64 -73 17 -7 15
-9 -15 -14 -19 -4 -62 -6 -95 -4 l-60 3 -3 49 c-4 56 5 66 61 66 32 0 39 -4
48 -27z m-1653 -69 c20 -10 21 -12 7 -18 -51 -19 -81 6 -70 60 l6 36 17 -33
c9 -19 27 -39 40 -45z m179 14 c9 -10 24 -18 35 -18 10 0 18 -4 18 -10 0 -5
-9 -10 -19 -10 -22 0 -61 -44 -61 -69 -1 -13 -3 -12 -12 4 -19 36 -51 65 -70
65 -10 0 -18 5 -18 10 0 6 9 10 19 10 20 0 70 52 72 73 0 7 5 1 10 -13 6 -13
17 -33 26 -42z m2070 -23 c-3 -7 -19 -15 -36 -18 -32 -7 -61 -48 -61 -87 0
-39 28 -78 65 -90 l36 -12 -3 -101 -3 -101 -32 -8 c-36 -9 -63 -49 -63 -92 0
-31 44 -84 73 -88 21 -3 22 -8 25 -105 l3 -101 -38 -19 c-21 -10 -42 -28 -48
-40 -15 -34 -25 -28 -25 16 0 36 3 40 30 46 46 10 73 51 67 103 -5 50 -29 80
-66 84 l-26 3 0 104 0 105 32 8 c35 9 63 49 63 88 0 36 -32 80 -65 88 -29 8
-30 10 -35 78 -6 78 -14 97 -56 125 l-29 19 66 0 c58 0 69 3 93 26 14 15 27
34 28 43 1 9 3 -1 5 -23 3 -21 2 -44 0 -51z m-399 -45 l2 -45 -21 33 c-12 18
-33 39 -48 47 -26 15 -25 15 19 12 l45 -2 3 -45z m-1359 -42 c19 -14 20 -16 6
-22 -50 -19 -73 7 -60 66 l7 31 13 -30 c7 -17 23 -37 34 -45z m-795 -14 c13
-5 12 -9 -9 -26 -14 -10 -28 -34 -33 -51 -8 -33 -35 -45 -69 -33 -11 5 -8 12
16 32 17 14 31 33 31 43 0 33 29 48 64 35z m-205 -86 c29 -18 26 -28 -8 -28
-40 0 -54 20 -45 66 l7 37 13 -31 c7 -17 22 -37 33 -44z m1811 -18 l0 -50 -50
0 -50 0 0 50 0 50 50 0 50 0 0 -50z m-1007 4 c4 -4 -5 -20 -18 -36 -32 -38
-33 -95 -4 -132 27 -35 101 -37 136 -4 l23 21 0 -27 c0 -19 -7 -29 -24 -36
-34 -13 -56 -48 -56 -91 0 -40 31 -89 58 -90 11 0 8 -4 -8 -10 -36 -14 -70 -3
-70 23 0 12 -10 32 -22 45 -18 20 -31 23 -88 23 -68 0 -90 10 -90 41 0 10 -13
28 -29 42 -17 14 -27 28 -24 31 4 3 29 6 57 6 75 0 96 24 96 110 0 38 5 71 12
78 13 13 41 16 51 6z m97 -104 l0 -50 -50 0 -50 0 0 50 0 50 50 0 50 0 0 -50z
m-438 -27 c5 -17 19 -40 33 -51 32 -25 23 -32 -41 -32 -45 0 -56 -4 -73 -26
-12 -15 -21 -35 -21 -45 0 -23 -43 -35 -73 -21 -13 6 -16 11 -8 11 8 1 25 11
38 23 18 17 23 32 23 69 0 42 -4 51 -35 77 l-36 29 92 -1 93 -1 8 -32z"/>
<path d="M640 1710 l0 -50 50 0 50 0 0 50 0 50 -50 0 -50 0 0 -50z"/>
<path d="M2245 2610 l0 -350 353 0 352 0 0 350 0 350 -352 0 -353 0 0 -350z
m102 304 c21 -6 20 -7 -13 -36 l-34 -30 0 -232 c0 -213 2 -234 20 -263 11 -18
24 -33 30 -33 5 0 10 -5 10 -11 0 -6 -14 -9 -32 -7 l-33 3 -3 299 c-3 329 -3
325 55 310z m541 -2 c9 -7 12 -75 10 -308 l-3 -299 -32 -3 c-19 -2 -33 1 -33
7 0 6 5 11 10 11 6 0 19 15 30 33 18 29 20 50 20 263 l0 232 -35 30 c-28 25
-31 32 -17 35 27 7 36 7 50 -1z m-38 -302 l0 -250 -252 0 -253 0 0 250 0 250
253 0 252 0 0 -250z"/>
<path d="M2450 2758 c0 -2 -2 -69 -3 -151 l-2 -147 150 0 150 0 -2 147 -2 148
-146 3 c-80 1 -145 1 -145 0z m248 -150 l-3 -103 -100 0 -100 0 -3 103 -3 102
106 0 106 0 -3 -102z"/>
<path d="M2740 2110 l0 -50 50 0 c48 0 50 1 50 28 0 15 3 37 6 50 6 21 4 22
-50 22 l-56 0 0 -50z"/>
<path d="M1415 1821 c-82 -21 -160 -86 -207 -173 -30 -56 -33 -204 -6 -255 17
-30 17 -34 -6 -115 -14 -45 -23 -85 -20 -87 2 -2 41 6 87 18 79 22 85 22 123
6 25 -10 67 -16 115 -16 94 -1 153 24 222 93 66 65 90 124 91 219 1 68 -3 83
-34 145 -69 134 -216 201 -365 165z m193 -75 c193 -100 201 -354 15 -463 -59
-34 -165 -39 -230 -9 -39 17 -45 18 -90 3 -26 -9 -49 -15 -50 -13 -1 1 5 21
13 46 14 41 14 46 -6 92 -61 142 7 300 150 352 55 20 152 16 198 -8z"/>
<path d="M1361 1634 c-37 -47 -23 -98 46 -175 46 -51 120 -89 172 -89 31 0 44
6 60 26 12 15 21 30 21 34 0 5 -19 18 -42 30 l-42 22 -19 -26 c-18 -24 -20
-25 -47 -11 -31 16 -90 74 -90 89 0 5 6 17 14 25 13 14 13 22 -4 59 -22 49
-40 53 -69 16z"/>
<path d="M2550 1610 l0 -150 -52 0 -53 0 0 -50 0 -50 53 0 52 0 0 -100 0 -100
95 0 95 0 0 50 0 50 -50 0 -51 0 3 250 3 250 -47 0 -48 0 0 -150z m66 -356 c9
-13 27 -27 40 -30 40 -10 27 -25 -18 -22 l-43 3 -5 76 c-5 82 -25 119 -62 119
-10 0 -18 5 -18 10 0 6 6 10 14 10 7 0 25 12 40 26 25 25 26 32 28 143 2 64 4
20 5 -97 3 -175 6 -218 19 -238z"/>
<path d="M40 1410 l0 -50 50 0 50 0 0 -50 0 -50 50 0 50 0 0 -54 0 -53 50 5
50 5 0 -51 0 -51 -97 -3 -98 -3 -3 -47 -3 -48 50 0 51 0 0 -53 0 -53 50 0 50
1 0 103 0 102 50 0 50 0 0 -102 0 -103 50 0 50 0 0 53 0 52 50 0 50 0 0 50 0
50 50 0 50 0 0 -55 0 -55 -50 0 -50 0 0 -51 c0 -48 1 -51 23 -45 12 3 57 6
100 6 l77 0 0 51 0 51 150 -4 150 -3 0 53 0 53 53 -2 52 -3 3 45 3 45 -56 0
-55 -1 0 -42 0 -43 -119 0 c-65 0 -133 -3 -150 -6 l-31 -6 0 56 0 56 -100 0
-100 0 0 -50 c0 -42 -3 -50 -19 -50 -10 0 -33 -3 -50 -6 l-31 -6 0 56 0 56
-100 0 -100 0 0 50 0 50 -50 0 -50 0 0 50 0 50 -51 0 -51 0 4 50 3 50 -52 0
-53 0 0 -50z m458 -327 c2 -12 18 -34 35 -49 l32 -28 -39 -38 c-21 -21 -40
-38 -42 -38 -2 0 -4 26 -4 58 0 62 -17 97 -54 112 -16 7 -11 9 24 7 38 -2 45
-5 48 -24z m306 -6 c7 -19 25 -43 39 -54 l26 -20 -23 -13 c-23 -12 -37 -33
-50 -72 -4 -13 -16 -18 -40 -18 l-34 0 29 29 c49 50 35 147 -25 171 -17 7 -13
9 21 9 39 1 44 -2 57 -32z m-506 -109 c2 -22 -1 -38 -7 -38 -6 0 -11 6 -11 13
0 15 -36 51 -60 60 -8 4 5 5 30 4 44 -2 45 -3 48 -39z"/>
<path d="M2250 1410 l0 -50 -55 0 -55 0 0 -50 0 -50 56 0 56 0 -3 -102 -3
-102 52 3 52 2 0 -55 0 -56 -106 0 -106 0 4 53 3 52 -47 3 -48 3 0 50 0 49
-50 0 -50 0 0 -52 0 -53 50 3 50 4 0 -57 0 -58 -50 6 -50 6 0 -53 0 -53 51 5
50 5 -3 -52 c-2 -28 -6 -51 -10 -51 -5 0 -48 0 -98 0 l-90 0 0 50 0 51 -52 -3
-53 -3 3 48 4 47 -51 0 -51 0 0 -51 0 -50 -51 3 -52 3 -1 -47 c-1 -26 -4 -48
-8 -48 -5 0 -26 0 -48 0 l-40 0 0 50 0 50 -50 0 -50 0 0 -50 0 -50 50 0 50 0
0 -50 0 -50 -50 0 -50 0 0 -50 0 -50 -50 0 -50 0 0 -52 0 -53 47 1 48 1 3 52
3 51 50 0 49 0 0 -102 0 -103 -156 3 -155 4 3 -101 3 -101 -52 0 -53 0 0 50 0
50 -50 0 -50 0 0 51 0 51 50 -4 50 -3 0 53 0 54 50 -4 50 -3 0 103 0 102 55 0
55 0 0 100 0 100 -55 0 -55 0 0 -100 0 -100 -50 0 -50 0 0 101 0 101 -97 -5
-98 -4 -3 -47 -3 -46 50 0 51 0 0 -102 0 -103 -50 3 -50 4 0 -54 0 -53 50 3
50 4 0 -51 0 -51 -50 0 -50 0 0 -50 0 -50 50 0 50 0 0 -50 0 -50 -50 0 -50 0
0 -50 0 -50 255 0 255 0 0 50 0 50 50 0 50 0 0 50 0 50 51 0 52 0 -5 -50 -5
-50 48 0 c41 0 49 3 49 19 0 10 3 33 6 50 l7 31 -50 0 -50 0 -7 37 c-10 65
-11 65 47 62 44 -3 52 0 51 14 0 9 -1 56 -2 103 l-2 86 -47 -3 -48 -3 -3 52
-3 52 55 0 56 0 0 -50 0 -50 101 0 100 0 -2 -52 -3 -52 52 3 52 2 0 -53 0 -53
50 3 50 4 0 -51 0 -51 -49 0 -49 0 -4 -50 -3 -50 54 0 54 0 -5 -50 -5 -50 52
0 52 0 -5 50 -5 50 54 0 54 0 0 100 0 100 -97 0 -97 0 -3 48 -3 47 -47 3 -48
3 0 84 c0 46 -3 90 -6 99 -5 13 3 16 50 16 l56 0 0 -100 0 -100 151 0 151 0
-4 -100 -3 -100 53 0 52 0 0 -50 0 -50 -52 0 -53 0 0 -50 0 -50 150 0 150 0 0
50 0 50 -52 0 -53 0 0 50 0 50 53 0 52 0 -4 51 -3 51 53 -3 54 -3 -1 49 -1 50
-52 3 -51 3 0 -50 0 -51 -35 -1 c-19 -1 -40 -2 -47 -3 -9 -1 -13 28 -13 102
l-2 102 51 0 51 0 -3 100 -3 100 54 0 54 0 -5 -100 -5 -100 52 0 51 0 0 50 0
50 55 0 55 0 0 100 0 100 -155 0 -155 0 0 -50 0 -50 -40 0 c-22 0 -43 0 -47 0
-5 0 -6 43 -4 95 l3 94 -53 3 -52 3 -2 53 -2 52 54 0 53 0 0 -50 c0 -55 -7
-50 76 -54 14 -1 17 9 17 49 l0 50 -46 3 -46 3 -3 47 -3 47 -50 0 -50 0 3 53
4 52 -55 0 -55 0 5 100 6 100 -52 0 -51 0 0 -50z m80 -165 c13 -14 31 -25 41
-25 21 0 36 -18 41 -50 2 -14 17 -34 37 -47 19 -13 27 -23 18 -23 -8 0 -27
-14 -42 -32 -22 -26 -26 -39 -22 -70 6 -47 22 -67 65 -85 31 -13 32 -15 32
-77 0 -74 21 -110 70 -119 29 -6 30 -9 30 -57 0 -47 -2 -51 -32 -63 -55 -23
-59 -34 -56 -148 l3 -103 34 -23 c19 -13 27 -23 18 -23 -22 0 -67 -57 -67 -86
0 -40 24 -78 65 -102 16 -9 3 -11 -70 -12 l-90 0 32 20 c38 23 53 48 53 89 0
35 -41 88 -73 93 -20 3 -23 10 -28 75 -6 79 -31 121 -73 124 -12 1 12 5 52 9
112 10 116 17 120 190 l4 140 -30 30 c-27 26 -38 30 -86 30 l-56 0 30 28 c61
54 48 137 -26 168 -34 14 -34 15 -34 77 0 67 -26 127 -55 127 -22 0 -19 7 20
41 19 17 36 38 36 48 1 9 5 -14 9 -52 5 -50 12 -73 30 -92z m-177 -325 c20
-12 26 -20 15 -20 -9 0 -28 -14 -42 -31 -25 -29 -26 -35 -26 -163 0 -121 2
-136 21 -160 12 -15 31 -32 43 -37 16 -6 10 -8 -24 -6 l-45 2 -3 70 c-3 60 -7
74 -29 97 -15 16 -34 28 -42 28 -9 0 -2 9 16 20 38 23 53 48 53 89 0 34 -43
91 -68 91 -11 0 -4 8 16 20 18 11 38 31 44 46 l12 25 13 -26 c8 -14 29 -35 46
-45z m-403 -100 c20 -11 20 -11 -10 -36 -25 -22 -30 -33 -30 -71 0 -56 13 -81
53 -98 l32 -14 -47 -1 c-45 0 -49 2 -62 34 -18 43 -51 66 -95 66 -54 0 -81
-32 -81 -95 0 -57 15 -78 63 -90 25 -7 27 -11 27 -55 0 -46 -2 -49 -37 -67
-23 -11 -44 -31 -54 -52 -9 -20 -28 -39 -47 -47 -17 -7 -41 -28 -52 -46 -11
-18 -20 -26 -20 -18 0 8 -14 29 -32 47 l-32 33 53 0 c45 0 57 4 82 30 29 29
30 32 28 116 -2 75 -5 89 -26 115 -14 16 -32 29 -40 29 -9 0 -1 10 18 23 20
13 38 36 44 55 6 23 17 35 35 39 35 8 58 30 65 62 4 20 15 30 38 37 18 5 41
22 52 40 l20 31 17 -28 c9 -15 26 -33 38 -39z m698 -111 l-3 -150 -150 0 -150
0 -3 150 -3 151 156 0 156 0 -3 -151z m-1450 26 c3 -74 26 -115 63 -115 27 0
40 -25 37 -71 -3 -38 -6 -43 -38 -53 -24 -7 -40 -21 -50 -43 -8 -18 -17 -33
-20 -33 -3 0 -11 14 -17 30 -7 19 -24 36 -45 45 -18 8 -26 14 -19 15 8 0 28
12 43 27 27 26 28 31 28 121 0 91 -1 94 -30 123 l-30 30 38 -3 37 -3 3 -70z
m1900 23 c3 -45 2 -48 -31 -61 -18 -8 -43 -26 -54 -41 l-21 -26 -6 23 c-3 12
-6 41 -6 64 0 34 -6 46 -31 68 l-32 26 89 -3 89 -3 3 -47z m-1048 -48 l0 -50
-52 0 -53 0 -1 50 0 50 53 0 53 0 0 -50z m125 -7 c-43 -10 -65 -44 -66 -97 0
-47 -17 -113 -18 -75 -1 21 -53 69 -77 70 -16 0 -15 2 6 10 37 15 58 38 65 70
6 28 9 29 58 28 29 -1 43 -3 32 -6z m-738 -421 c-21 -22 -27 -38 -27 -73 0
-48 10 -66 50 -93 24 -15 21 -16 -65 -16 l-90 0 38 31 c35 29 37 34 37 89 0
80 5 90 48 90 l36 0 -27 -28z m963 -22 c0 -40 -4 -52 -17 -56 -34 -10 -48 -21
-70 -54 -13 -19 -23 -26 -23 -18 0 9 -16 30 -34 46 l-35 30 24 16 c13 9 29 31
36 51 13 34 14 35 66 35 l53 0 0 -50z m-850 -50 l0 -50 -52 0 -53 0 0 50 0 50
52 0 53 0 0 -50z m-350 -34 c0 -8 17 -28 37 -45 l38 -31 -85 0 -85 0 38 31
c20 17 37 37 37 45 0 8 5 14 10 14 6 0 10 -6 10 -14z"/>
<path d="M2244 710 l0 -50 53 0 53 0 0 50 0 50 -53 0 -53 0 0 -50z"/>
<path d="M1848 1310 l4 -50 49 0 49 0 0 50 0 50 -52 0 -53 0 3 -50z"/>
<path d="M1618 1173 c-27 -7 -22 -23 7 -23 16 0 25 6 25 15 0 15 -2 16 -32 8z"/>
<path d="M40 1112 c0 -27 2 -51 4 -53 3 -2 25 -3 50 -1 l46 4 0 49 0 49 -50 0
-50 0 0 -48z"/>
<path d="M1350 1108 l0 -53 50 0 50 0 0 46 c0 44 -2 47 -31 53 -66 13 -69 11
-69 -46z"/>
<path d="M1548 1053 c-2 -4 -3 -28 -3 -53 l1 -45 44 3 c25 2 46 5 47 5 0 1 3
22 5 47 l3 45 -47 3 c-25 2 -48 -1 -50 -5z"/>
<path d="M1749 1056 c-2 -3 -3 -25 -1 -50 4 -42 6 -46 31 -46 14 0 36 -3 49
-6 21 -6 22 -4 22 50 l0 56 -48 0 c-27 0 -51 -2 -53 -4z"/>
<path d="M40 909 l0 -54 50 0 50 0 0 48 c0 45 -1 47 -27 47 -16 0 -38 3 -50 6
-22 6 -23 3 -23 -47z"/>
<path d="M40 410 l0 -350 350 0 350 0 0 350 0 350 -350 0 -350 0 0 -350z m120
289 c-57 -23 -60 -33 -60 -293 l0 -239 36 -33 35 -34 -40 0 c-26 0 -41 5 -42
13 0 13 0 577 1 590 0 4 21 7 48 6 41 0 44 -1 22 -10z m535 -294 l0 -300 -42
-3 c-26 -2 -43 1 -43 7 0 6 6 11 14 11 8 0 26 14 40 31 l26 31 0 228 0 228
-25 31 c-14 16 -36 32 -48 34 -12 3 1 4 28 3 l50 -1 0 -300z m-53 5 l3 -250
-252 0 -253 0 0 250 0 250 250 0 249 0 3 -250z"/>
<path d="M240 410 l0 -150 150 0 150 0 0 150 0 150 -150 0 -150 0 0 -150z
m255 -5 l0 -100 -99 -3 c-73 -2 -102 1 -108 10 -9 15 -11 159 -2 183 5 13 22
15 108 13 l101 -3 0 -100z"/>
<path d="M2848 530 c-4 -77 -7 -73 47 -73 l50 0 3 52 3 51 -50 0 c-50 0 -51
-1 -53 -30z"/>
<path d="M1749 358 c0 -2 -1 -24 -2 -51 l-2 -47 53 0 52 0 0 50 0 50 -50 0
c-27 0 -50 -1 -51 -2z"/>
<path d="M2840 348 c0 -7 3 -30 6 -50 7 -38 7 -38 55 -38 l49 0 0 50 0 50 -55
0 c-37 0 -55 -4 -55 -12z"/>
<path d="M2740 160 l0 -100 105 0 105 0 0 50 0 50 -55 0 -55 0 0 50 0 50 -50
0 -50 0 0 -100z m119 -45 c26 -14 25 -14 -21 -15 l-48 0 0 48 0 47 21 -33 c12
-18 33 -39 48 -47z"/>
<path d="M1650 133 c0 -16 -3 -38 -6 -50 -6 -22 -4 -23 50 -23 l56 0 0 50 0
50 -50 0 c-48 0 -50 -1 -50 -27z"/>
</g>
</svg>
